<?xml version="1.0" encoding="UTF-8"?>
<svg width="24px" height="24px" viewBox="0 0 24 24" version="1.1" xmlns="http://www.w3.org/2000/svg" xmlns:xlink="http://www.w3.org/1999/xlink">
    <title>pastille AJ24</title>
    <g id="pastille-AJ" stroke="none" stroke-width="1" fill="none" fill-rule="evenodd">
        <g id="FWB-AJ" fill-rule="nonzero">
            <path d="M24,11.9998526 C24,18.6274948 18.6274948,24 12.0001474,24 C5.37250519,24 0,18.6274948 0,11.9998526 C0,5.37250519 5.37250519,0 12.0001474,0 C18.6274948,0 24,5.37250519 24,11.9998526" id="Fill-1" fill="#75BF8B"></path>
            <path d="M14.0003203,19 C10.6920079,19 8,16.424644 8,13.2586738 L10.3409321,13.2586738 C10.3409321,15.2059163 11.9825957,16.7902623 14.0003203,16.7902623 C16.0177246,16.7902623 17.6593882,15.2059163 17.6593882,13.2586738 L17.6593882,8 L20,8 L20,13.2586738 C20,16.424644 17.3086327,19 14.0003203,19" id="Fill-2" fill="#FFFFFE"></path>
            <polyline id="Fill-3" fill="#FFFFFE" points="13.3933122 13 8.94097092 8.49527145 4.60281705 12.8647986 3 10.9877408 8.94419655 5 15 11.1274956 13.3933122 13"></polyline>
        </g>
    </g>
</svg>