<?xml version="1.0" encoding="UTF-8"?>
<svg width="24px" height="24px" viewBox="0 0 24 24" version="1.1" xmlns="http://www.w3.org/2000/svg" xmlns:xlink="http://www.w3.org/1999/xlink">
    <title>pastille RS 24</title>
    <g id="pastille-RS-" stroke="none" stroke-width="1" fill="none" fill-rule="evenodd">
        <g id="FWB-rs-pastille" fill-rule="nonzero">
            <path d="M24,11.9998526 C24,18.6274948 18.6274948,24 12.0001474,24 C5.37250519,24 0,18.6274948 0,11.9998526 C0,5.37250519 5.37250519,0 12.0001474,0 C18.6274948,0 24,5.37250519 24,11.9998526" id="Fill-1" fill="#449790"></path>
            <path d="M16,19 L12.7934669,14.1905365 C13.6860646,13.2133659 14.2383172,11.8967218 14.2383172,10.4459383 C14.2383172,7.44323192 11.8882311,5 9,5 L9,7.28067572 C10.6788009,7.28067572 12.04459,8.70059802 12.04459,10.4459383 C12.04459,12.1912785 10.6788009,13.6112008 9,13.6112008 L9,15.8918766 C9.70273334,15.8918766 10.372549,15.7449037 10.9856405,15.482736 L13.3304362,19 L16,19" id="Fill-2" fill="#FFFFFE"></path>
        </g>
    </g>
</svg>