<?xml version="1.0" encoding="UTF-8"?>
<svg id="Calque_2" data-name="Calque 2" xmlns="http://www.w3.org/2000/svg" xmlns:xlink="http://www.w3.org/1999/xlink" viewBox="0 0 711.53 882.56">
  <defs>
    <style>
      .cls-1 {
        fill: none;
      }

      .cls-2 {
        fill: #efa143;
      }

      .cls-3 {
        fill: url(#Nouvelle_nuance_de_motif_8);
      }
    </style>
    <pattern id="Nouvelle_nuance_de_motif_8" data-name="Nouvelle nuance de motif 8" x="0" y="0" width="68.03" height="68.03" patternTransform="translate(-3901.9 2152.32)" patternUnits="userSpaceOnUse" viewBox="0 0 68.03 68.03">
      <g>
        <rect class="cls-1" width="68.03" height="68.03"/>
        <polygon class="cls-2" points="52.9 60.2 58.65 70.02 55.47 70.02 52.85 65.54 46.55 75.86 43.57 75.86 43.4 75.75 52.9 60.2"/>
        <polygon class="cls-2" points="18.89 60.2 24.63 70.02 21.46 70.02 18.84 65.54 12.53 75.86 9.55 75.86 9.38 75.75 18.89 60.2"/>
        <polygon class="cls-2" points="69.91 26.19 75.66 36 72.48 36 69.86 31.53 63.56 41.84 60.58 41.84 60.41 41.74 69.91 26.19"/>
        <polygon class="cls-2" points="35.89 26.19 41.64 36 38.46 36 35.84 31.53 29.54 41.84 26.56 41.84 26.39 41.74 35.89 26.19"/>
        <polygon class="cls-2" points="1.88 26.19 7.63 36 4.45 36 1.83 31.53 -4.48 41.84 -7.46 41.84 -7.63 41.74 1.88 26.19"/>
        <polygon class="cls-2" points="52.9 -7.83 58.65 1.99 55.47 1.99 52.85 -2.49 46.55 7.83 43.57 7.83 43.4 7.72 52.9 -7.83"/>
        <polygon class="cls-2" points="18.89 -7.83 24.63 1.99 21.46 1.99 18.84 -2.49 12.53 7.83 9.55 7.83 9.38 7.72 18.89 -7.83"/>
      </g>
    </pattern>
  </defs>
  <g id="Calque_1-2" data-name="Calque 1">
    <rect class="cls-3" width="711.53" height="882.56"/>
  </g>
</svg>