<?xml version="1.0" encoding="UTF-8"?>
<svg id="Calque_2" data-name="Calque 2" xmlns="http://www.w3.org/2000/svg" xmlns:xlink="http://www.w3.org/1999/xlink" viewBox="0 0 711.53 882.56">
  <defs>
    <style>
      .cls-1 {
        fill: none;
      }

      .cls-2 {
        fill: #419f9e;
      }

      .cls-3 {
        fill: url(#Nouvelle_nuance_de_motif_2);
      }
    </style>
    <pattern id="Nouvelle_nuance_de_motif_2" data-name="Nouvelle nuance de motif 2" x="0" y="0" width="68.03" height="68.03" patternTransform="translate(-6321.85 2151.64)" patternUnits="userSpaceOnUse" viewBox="0 0 68.03 68.03">
      <g>
        <rect class="cls-1" width="68.03" height="68.03"/>
        <path class="cls-2" d="m55.44,76.54l-4.05-5.84c1.13-1.19,1.82-2.79,1.82-4.55,0-3.65-2.97-6.62-6.62-6.62v2.77c2.12,0,3.85,1.72,3.85,3.85s-1.73,3.85-3.85,3.85v2.77c.89,0,1.73-.18,2.51-.5l2.96,4.27h3.37Z"/>
        <path class="cls-2" d="m21.43,76.54l-4.05-5.84c1.13-1.19,1.82-2.79,1.82-4.55,0-3.65-2.97-6.62-6.62-6.62v2.77c2.12,0,3.85,1.72,3.85,3.85s-1.73,3.85-3.85,3.85v2.77c.89,0,1.73-.18,2.51-.5l2.96,4.27h3.37Z"/>
        <path class="cls-2" d="m72.45,42.52l-4.05-5.84c1.13-1.19,1.82-2.79,1.82-4.55,0-3.65-2.97-6.62-6.62-6.62v2.77c2.12,0,3.85,1.72,3.85,3.85s-1.73,3.85-3.85,3.85v2.77c.89,0,1.73-.18,2.51-.5l2.96,4.27h3.37Z"/>
        <path class="cls-2" d="m38.44,42.52l-4.05-5.84c1.13-1.19,1.82-2.79,1.82-4.55,0-3.65-2.97-6.62-6.62-6.62v2.77c2.12,0,3.85,1.72,3.85,3.85s-1.73,3.85-3.85,3.85v2.77c.89,0,1.73-.18,2.51-.5l2.96,4.27h3.37Z"/>
        <path class="cls-2" d="m4.42,42.52L.37,36.68c1.13-1.19,1.82-2.79,1.82-4.55,0-3.65-2.97-6.62-6.62-6.62v2.77c2.12,0,3.85,1.72,3.85,3.85s-1.73,3.85-3.85,3.85v2.77c.89,0,1.73-.18,2.51-.5l2.96,4.27h3.37Z"/>
        <path class="cls-2" d="m55.44,8.5l-4.05-5.84c1.13-1.19,1.82-2.79,1.82-4.55,0-3.65-2.97-6.62-6.62-6.62v2.77c2.12,0,3.85,1.72,3.85,3.85s-1.73,3.85-3.85,3.85v2.77c.89,0,1.73-.18,2.51-.5l2.96,4.27h3.37Z"/>
        <path class="cls-2" d="m21.43,8.5l-4.05-5.84c1.13-1.19,1.82-2.79,1.82-4.55,0-3.65-2.97-6.62-6.62-6.62v2.77c2.12,0,3.85,1.72,3.85,3.85s-1.73,3.85-3.85,3.85v2.77c.89,0,1.73-.18,2.51-.5l2.96,4.27h3.37Z"/>
      </g>
    </pattern>
  </defs>
  <g id="Calque_1-2" data-name="Calque 1">
    <rect class="cls-3" x="0" width="711.53" height="882.56"/>
  </g>
</svg>