<?xml version="1.0" encoding="UTF-8"?>
<svg id="Calque_2" data-name="Calque 2" xmlns="http://www.w3.org/2000/svg" xmlns:xlink="http://www.w3.org/1999/xlink" viewBox="0 0 711.53 882.56">
  <defs>
    <style>
      .cls-1 {
        fill: none;
      }

      .cls-2 {
        fill: #e57477;
      }

      .cls-3 {
        fill: url(#Motif_Culture);
      }
    </style>
    <pattern id="Motif_Culture" data-name="Motif Culture" x="0" y="0" width="68.03" height="68.03" patternTransform="translate(-3098.81 2152.32)" patternUnits="userSpaceOnUse" viewBox="0 0 68.03 68.03">
      <g>
        <rect class="cls-1" width="68.03" height="68.03"/>
        <path class="cls-2" d="m55.1,76.18c-4.49,0-8.15-3.66-8.15-8.15s3.66-8.15,8.15-8.15v2.74c-2.98,0-5.41,2.43-5.41,5.41s2.43,5.41,5.41,5.41v2.74Z"/>
        <path class="cls-2" d="m21.08,76.18c-4.49,0-8.15-3.66-8.15-8.15s3.66-8.15,8.15-8.15v2.74c-2.98,0-5.41,2.43-5.41,5.41s2.43,5.41,5.41,5.41v2.74Z"/>
        <path class="cls-2" d="m72.11,42.17c-4.49,0-8.15-3.66-8.15-8.15s3.66-8.15,8.15-8.15v2.74c-2.98,0-5.41,2.43-5.41,5.41s2.43,5.41,5.41,5.41v2.74Z"/>
        <path class="cls-2" d="m38.09,42.17c-4.49,0-8.15-3.66-8.15-8.15s3.66-8.15,8.15-8.15v2.74c-2.98,0-5.41,2.43-5.41,5.41s2.43,5.41,5.41,5.41v2.74Z"/>
        <path class="cls-2" d="m4.08,42.17c-4.49,0-8.15-3.66-8.15-8.15S-.42,25.86,4.08,25.86v2.74c-2.98,0-5.41,2.43-5.41,5.41s2.43,5.41,5.41,5.41v2.74Z"/>
        <path class="cls-2" d="m55.1,8.15C50.61,8.15,46.95,4.49,46.95,0s3.66-8.15,8.15-8.15v2.74C52.12-5.41,49.69-2.98,49.69,0s2.43,5.41,5.41,5.41v2.74Z"/>
        <path class="cls-2" d="m21.08,8.15C16.59,8.15,12.93,4.49,12.93,0s3.66-8.15,8.15-8.15v2.74C18.1-5.41,15.67-2.98,15.67,0s2.43,5.41,5.41,5.41v2.74Z"/>
      </g>
    </pattern>
  </defs>
  <g id="Calque_1-2" data-name="Calque 1">
    <rect class="cls-3" width="711.53" height="882.56"/>
  </g>
</svg>