<?xml version="1.0" encoding="UTF-8"?>
<svg id="Calque_2" data-name="Calque 2" xmlns="http://www.w3.org/2000/svg" xmlns:xlink="http://www.w3.org/1999/xlink" viewBox="0 0 711.53 893.56">
  <defs>
    <style>
      .cls-1 {
        fill: none;
      }

      .cls-2 {
        fill: #efa143;
      }

      .cls-3 {
        fill: #e57477;
      }

      .cls-4 {
        fill: #86c48f;
      }

      .cls-5 {
        fill: #be80b6;
      }

      .cls-6 {
        fill: #419f9e;
      }

      .cls-7 {
        fill: #3b97c8;
      }

      .cls-8 {
        fill: url(#Nouvelle_nuance_de_motif_5);
      }
    </style>
    <pattern id="Nouvelle_nuance_de_motif_5" data-name="Nouvelle nuance de motif 5" x="0" y="0" width="221.1" height="198.43" patternTransform="translate(-1520.1 1812.16)" patternUnits="userSpaceOnUse" viewBox="0 0 221.1 198.43">
      <g>
        <rect class="cls-1" width="221.1" height="198.43"/>
        <g>
          <polygon class="cls-2" points="64.66 170.76 70.4 180.57 67.23 180.57 64.61 176.1 58.3 186.41 55.32 186.41 55.15 186.31 64.66 170.76"/>
          <path class="cls-3" d="m140.75,186.73c-4.49,0-8.15-3.66-8.15-8.15s3.66-8.15,8.15-8.15v2.74c-2.98,0-5.41,2.43-5.41,5.41s2.43,5.41,5.41,5.41v2.74Z"/>
          <polygon class="cls-5" points="220.05 187.37 217.43 186.56 220.2 177.69 213.69 173.14 206.99 177.88 209.94 186.29 207.35 187.2 203.71 176.84 213.69 169.79 223.42 176.59 220.05 187.37"/>
          <g>
            <rect class="cls-7" x="94.31" y="170.4" width="11.82" height="2.74"/>
            <rect class="cls-7" x="94.31" y="177.21" width="9.04" height="2.74"/>
            <rect class="cls-7" x="94.31" y="184.03" width="11.82" height="2.74"/>
          </g>
          <g>
            <path class="cls-4" d="m175.92,187.17c-3.88,0-7.03-3.2-7.03-7.12h2.74c0,2.42,1.92,4.38,4.29,4.38s4.29-1.97,4.29-4.38v-6.53h2.74v6.53c0,3.93-3.15,7.12-7.03,7.12Z"/>
            <polygon class="cls-4" points="175.38 178.57 170.2 173.74 165.15 178.42 163.29 176.41 170.2 170 177.25 176.56 175.38 178.57"/>
          </g>
        </g>
        <g>
          <polygon class="cls-5" points="-1.05 187.37 -3.67 186.56 -.9 177.69 -7.41 173.14 -14.12 177.88 -11.17 186.29 -13.75 187.2 -17.39 176.84 -7.42 169.79 2.32 176.59 -1.05 187.37"/>
          <path class="cls-6" d="m33.29,187l-4.01-5.78c1.12-1.17,1.81-2.76,1.81-4.5,0-3.61-2.94-6.55-6.55-6.55v2.74c2.1,0,3.81,1.71,3.81,3.81s-1.71,3.81-3.81,3.81v2.74c.88,0,1.72-.18,2.48-.49l2.93,4.23h3.34Z"/>
        </g>
        <g>
          <polygon class="cls-2" points="153.1 131.07 158.85 140.88 155.67 140.88 153.05 136.41 146.74 146.72 143.76 146.72 143.59 146.62 153.1 131.07"/>
          <path class="cls-3" d="m229.19,147.05c-4.49,0-8.15-3.66-8.15-8.15s3.66-8.15,8.15-8.15v2.74c-2.98,0-5.41,2.43-5.41,5.41s2.43,5.41,5.41,5.41v2.74Z"/>
          <g>
            <rect class="cls-7" x="182.76" y="130.71" width="11.82" height="2.74"/>
            <rect class="cls-7" x="182.76" y="137.53" width="9.04" height="2.74"/>
            <rect class="cls-7" x="182.76" y="144.34" width="11.82" height="2.74"/>
          </g>
        </g>
        <g>
          <path class="cls-3" d="m8.09,147.05c-4.49,0-8.15-3.66-8.15-8.15s3.66-8.15,8.15-8.15v2.74c-2.98,0-5.41,2.43-5.41,5.41s2.43,5.41,5.41,5.41v2.74Z"/>
          <polygon class="cls-5" points="87.39 147.69 84.77 146.87 87.54 138.01 81.03 133.46 74.32 138.2 77.27 146.61 74.69 147.52 71.05 137.15 81.02 130.11 90.76 136.91 87.39 147.69"/>
          <path class="cls-6" d="m121.73,147.31l-4.01-5.78c1.12-1.17,1.81-2.76,1.81-4.5,0-3.61-2.94-6.55-6.55-6.55v2.74c2.1,0,3.81,1.71,3.81,3.81s-1.71,3.81-3.81,3.81v2.74c.88,0,1.72-.18,2.48-.49l2.93,4.23h3.34Z"/>
          <g>
            <path class="cls-4" d="m43.26,147.48c-3.88,0-7.03-3.2-7.03-7.12h2.74c0,2.42,1.92,4.38,4.29,4.38s4.29-1.97,4.29-4.38v-6.53h2.74v6.53c0,3.93-3.15,7.12-7.03,7.12Z"/>
            <polygon class="cls-4" points="42.72 138.88 37.54 134.06 32.49 138.74 30.63 136.73 37.54 130.31 44.59 136.88 42.72 138.88"/>
          </g>
        </g>
        <g>
          <polygon class="cls-2" points="20.44 91.39 26.18 101.2 23.01 101.2 20.39 96.73 14.08 107.04 11.1 107.04 10.93 106.94 20.44 91.39"/>
          <path class="cls-3" d="m96.53,107.36c-4.49,0-8.15-3.66-8.15-8.15s3.66-8.15,8.15-8.15v2.74c-2.98,0-5.41,2.43-5.41,5.41s2.43,5.41,5.41,5.41v2.74Z"/>
          <polygon class="cls-5" points="175.83 108 173.21 107.19 175.98 98.32 169.47 93.77 162.76 98.51 165.72 106.92 163.13 107.83 159.49 97.47 169.47 90.42 179.2 97.22 175.83 108"/>
          <g>
            <rect class="cls-7" x="50.09" y="91.03" width="11.82" height="2.74"/>
            <rect class="cls-7" x="50.09" y="97.84" width="9.04" height="2.74"/>
            <rect class="cls-7" x="50.09" y="104.66" width="11.82" height="2.74"/>
          </g>
          <path class="cls-6" d="m210.17,107.63l-4.01-5.78c1.12-1.17,1.81-2.76,1.81-4.5,0-3.61-2.94-6.55-6.55-6.55v2.74c2.1,0,3.81,1.71,3.81,3.81s-1.71,3.81-3.81,3.81v2.74c.88,0,1.72-.18,2.48-.49l2.93,4.23h3.34Z"/>
          <g>
            <path class="cls-4" d="m131.7,107.8c-3.88,0-7.03-3.2-7.03-7.12h2.74c0,2.42,1.92,4.38,4.29,4.38s4.29-1.97,4.29-4.38v-6.53h2.74v6.53c0,3.93-3.15,7.12-7.03,7.12Z"/>
            <polygon class="cls-4" points="131.16 99.2 125.98 94.37 120.93 99.05 119.07 97.04 125.98 90.63 133.03 97.19 131.16 99.2"/>
          </g>
        </g>
        <g>
          <polygon class="cls-2" points="108.88 51.7 114.62 61.51 111.45 61.51 108.83 57.04 102.52 67.35 99.54 67.35 99.37 67.25 108.88 51.7"/>
          <path class="cls-3" d="m184.97,67.68c-4.49,0-8.15-3.66-8.15-8.15s3.66-8.15,8.15-8.15v2.74c-2.98,0-5.41,2.43-5.41,5.41s2.43,5.41,5.41,5.41v2.74Z"/>
          <g>
            <rect class="cls-7" x="138.54" y="51.34" width="11.82" height="2.74"/>
            <rect class="cls-7" x="138.54" y="58.16" width="9.04" height="2.74"/>
            <rect class="cls-7" x="138.54" y="64.97" width="11.82" height="2.74"/>
          </g>
          <g>
            <path class="cls-4" d="m220.14,68.11c-3.88,0-7.03-3.2-7.03-7.12h2.74c0,2.42,1.92,4.38,4.29,4.38s4.29-1.97,4.29-4.38v-6.53h2.74v6.53c0,3.93-3.15,7.12-7.03,7.12Z"/>
            <polygon class="cls-4" points="219.6 59.51 214.42 54.69 209.37 59.37 207.51 57.36 214.42 50.94 221.47 57.51 219.6 59.51"/>
          </g>
        </g>
        <g>
          <polygon class="cls-5" points="43.17 68.32 40.55 67.5 43.32 58.64 36.81 54.09 30.1 58.83 33.05 67.24 30.47 68.15 26.83 57.78 36.8 50.74 46.54 57.54 43.17 68.32"/>
          <path class="cls-6" d="m77.51,67.94l-4.01-5.78c1.12-1.17,1.81-2.76,1.81-4.5,0-3.61-2.94-6.55-6.55-6.55v2.74c2.1,0,3.81,1.71,3.81,3.81s-1.71,3.81-3.81,3.81v2.74c.88,0,1.72-.18,2.48-.49l2.93,4.23h3.34Z"/>
          <g>
            <path class="cls-4" d="m-.96,68.11c-3.88,0-7.03-3.2-7.03-7.12h2.74c0,2.42,1.92,4.38,4.29,4.38s4.29-1.97,4.29-4.38v-6.53h2.74v6.53c0,3.93-3.15,7.12-7.03,7.12Z"/>
            <polygon class="cls-4" points="-1.5 59.51 -6.68 54.69 -11.73 59.37 -13.59 57.36 -6.68 50.94 .37 57.51 -1.5 59.51"/>
          </g>
        </g>
        <polygon class="cls-2" points="197.32 12.02 203.07 21.83 199.89 21.83 197.27 17.36 190.96 27.67 187.98 27.67 187.81 27.57 197.32 12.02"/>
        <g>
          <path class="cls-3" d="m52.31,27.99c-4.49,0-8.15-3.66-8.15-8.15s3.66-8.15,8.15-8.15v2.74c-2.98,0-5.41,2.43-5.41,5.41s2.43,5.41,5.41,5.41v2.74Z"/>
          <polygon class="cls-5" points="131.61 28.63 128.99 27.82 131.76 18.95 125.25 14.4 118.54 19.14 121.49 27.55 118.91 28.46 115.27 18.1 125.25 11.05 134.98 17.85 131.61 28.63"/>
          <g>
            <rect class="cls-7" x="5.87" y="11.66" width="11.82" height="2.74"/>
            <rect class="cls-7" x="5.87" y="18.47" width="9.04" height="2.74"/>
            <rect class="cls-7" x="5.87" y="25.29" width="11.82" height="2.74"/>
          </g>
          <path class="cls-6" d="m165.95,28.26l-4.01-5.78c1.12-1.17,1.81-2.76,1.81-4.5,0-3.61-2.94-6.55-6.55-6.55v2.74c2.1,0,3.81,1.71,3.81,3.81s-1.71,3.81-3.81,3.81v2.74c.88,0,1.72-.18,2.48-.49l2.93,4.23h3.34Z"/>
          <g>
            <path class="cls-4" d="m87.48,28.43c-3.88,0-7.03-3.2-7.03-7.12h2.74c0,2.42,1.92,4.38,4.29,4.38s4.29-1.97,4.29-4.38v-6.53h2.74v6.53c0,3.93-3.15,7.12-7.03,7.12Z"/>
            <polygon class="cls-4" points="86.94 19.83 81.76 15 76.71 19.68 74.85 17.67 81.76 11.26 88.81 17.82 86.94 19.83"/>
          </g>
        </g>
      </g>
    </pattern>
  </defs>
  <g id="Calque_1-2" data-name="Calque 1">
    <rect class="cls-8" width="711.53" height="893.56"/>
  </g>
</svg>