<?xml version="1.0" encoding="UTF-8"?>
<svg id="Calque_2" data-name="Calque 2" xmlns="http://www.w3.org/2000/svg" xmlns:xlink="http://www.w3.org/1999/xlink" viewBox="0 0 711.53 882.56">
  <defs>
    <style>
      .cls-1 {
        fill: none;
      }

      .cls-2 {
        fill: #86c48f;
      }

      .cls-3 {
        fill: url(#Nouvelle_nuance_de_motif_9);
      }
    </style>
    <pattern id="Nouvelle_nuance_de_motif_9" data-name="Nouvelle nuance de motif 9" x="0" y="0" width="68.03" height="68.03" patternTransform="translate(-4722.69 2152.32)" patternUnits="userSpaceOnUse" viewBox="0 0 68.03 68.03">
      <g>
        <rect class="cls-1" width="68.03" height="68.03"/>
        <g>
          <path class="cls-2" d="m53.83,76.62c-3.88,0-7.03-3.2-7.03-7.12h2.74c0,2.42,1.92,4.38,4.29,4.38s4.29-1.97,4.29-4.38v-6.53h2.74v6.53c0,3.93-3.15,7.12-7.03,7.12Z"/>
          <polygon class="cls-2" points="53.28 68.02 48.1 63.19 43.06 67.87 41.19 65.86 48.11 59.45 55.15 66.01 53.28 68.02"/>
        </g>
        <g>
          <path class="cls-2" d="m19.81,76.62c-3.88,0-7.03-3.2-7.03-7.12h2.74c0,2.42,1.92,4.38,4.29,4.38s4.29-1.97,4.29-4.38v-6.53h2.74v6.53c0,3.93-3.15,7.12-7.03,7.12Z"/>
          <polygon class="cls-2" points="19.27 68.02 14.09 63.19 9.04 67.87 7.18 65.86 14.09 59.45 21.13 66.01 19.27 68.02"/>
        </g>
        <g>
          <path class="cls-2" d="m70.84,42.6c-3.88,0-7.03-3.2-7.03-7.12h2.74c0,2.42,1.92,4.38,4.29,4.38s4.29-1.97,4.29-4.38v-6.53h2.74v6.53c0,3.93-3.15,7.12-7.03,7.12Z"/>
          <polygon class="cls-2" points="70.29 34 65.11 29.17 60.06 33.86 58.2 31.85 65.11 25.43 72.16 32 70.29 34"/>
        </g>
        <g>
          <path class="cls-2" d="m36.82,42.6c-3.88,0-7.03-3.2-7.03-7.12h2.74c0,2.42,1.92,4.38,4.29,4.38s4.29-1.97,4.29-4.38v-6.53h2.74v6.53c0,3.93-3.15,7.12-7.03,7.12Z"/>
          <polygon class="cls-2" points="36.27 34 31.09 29.17 26.05 33.86 24.18 31.85 31.1 25.43 38.14 32 36.27 34"/>
        </g>
        <g>
          <path class="cls-2" d="m2.8,42.6c-3.88,0-7.03-3.2-7.03-7.12H-1.48c0,2.42,1.92,4.38,4.29,4.38s4.29-1.97,4.29-4.38v-6.53h2.74v6.53c0,3.93-3.15,7.12-7.03,7.12Z"/>
          <polygon class="cls-2" points="2.26 34 -2.92 29.17 -7.97 33.86 -9.83 31.85 -2.92 25.43 4.13 32 2.26 34"/>
        </g>
        <path class="cls-2" d="m53.83,8.59c-3.88,0-7.03-3.2-7.03-7.12h2.74c0,2.42,1.92,4.38,4.29,4.38s4.29-1.97,4.29-4.38v-6.53h2.74V1.46c0,3.93-3.15,7.12-7.03,7.12Z"/>
        <path class="cls-2" d="m19.81,8.59c-3.88,0-7.03-3.2-7.03-7.12h2.74c0,2.42,1.92,4.38,4.29,4.38s4.29-1.97,4.29-4.38v-6.53h2.74V1.46c0,3.93-3.15,7.12-7.03,7.12Z"/>
      </g>
    </pattern>
  </defs>
  <g id="Calque_1-2" data-name="Calque 1">
    <rect class="cls-3" width="711.53" height="882.56"/>
  </g>
</svg>