<?xml version="1.0" encoding="UTF-8"?>
<svg id="Calque_1" data-name="Calque 1" xmlns="http://www.w3.org/2000/svg" viewBox="0 0 376.51 96.32">
  <defs>
    <style>
      .cls-1 {
        fill: #e37176;
      }

      .cls-2 {
        fill: #1d1d1b;
      }
    </style>
  </defs>
  <rect class="cls-2" x="237.6" y="28.36" width=".94" height="39.46"/>
  <g>
    <path class="cls-2" d="m279.22,44.2c.58-1.02,1.38-1.82,2.39-2.39,1.01-.57,2.14-.86,3.4-.86,1.47,0,2.76.38,3.86,1.13,1.11.75,1.88,1.8,2.32,3.13h-3.03c-.3-.63-.73-1.1-1.27-1.41-.55-.31-1.18-.47-1.89-.47-.77,0-1.45.18-2.04.54-.6.36-1.06.86-1.39,1.52-.33.65-.5,1.42-.5,2.3s.16,1.63.5,2.29c.33.66.8,1.17,1.39,1.53.6.36,1.28.54,2.04.54.72,0,1.35-.16,1.89-.48.55-.32.97-.79,1.27-1.42h3.03c-.44,1.34-1.21,2.39-2.31,3.14-1.1.75-2.39,1.12-3.87,1.12-1.26,0-2.39-.29-3.4-.86s-1.81-1.37-2.39-2.38c-.58-1.02-.88-2.17-.88-3.47s.29-2.45.88-3.48Z"/>
    <path class="cls-2" d="m303.3,43.83v10.44h-2.66v-1.32c-.34.45-.78.81-1.33,1.06-.55.26-1.14.39-1.78.39-.82,0-1.54-.17-2.17-.52s-1.12-.85-1.48-1.53c-.36-.67-.54-1.47-.54-2.4v-6.12h2.64v5.75c0,.83.21,1.47.62,1.91.42.45.98.67,1.7.67s1.3-.22,1.71-.67c.41-.45.62-1.08.62-1.91v-5.75h2.66Z"/>
    <path class="cls-2" d="m308.54,40.32v13.94h-2.64v-13.94h2.64Z"/>
    <path class="cls-2" d="m314.21,45.99v5.05c0,.35.08.61.25.76.17.16.45.24.86.24h1.22v2.22h-1.66c-2.22,0-3.33-1.08-3.33-3.24v-5.03h-1.24v-2.17h1.24v-2.58h2.66v2.58h2.34v2.17h-2.34Z"/>
    <path class="cls-2" d="m328.3,43.83v10.44h-2.66v-1.32c-.34.45-.78.81-1.33,1.06-.55.26-1.14.39-1.78.39-.82,0-1.54-.17-2.17-.52s-1.12-.85-1.48-1.53c-.36-.67-.54-1.47-.54-2.4v-6.12h2.64v5.75c0,.83.21,1.47.62,1.91.42.45.98.67,1.7.67s1.3-.22,1.71-.67c.41-.45.62-1.08.62-1.91v-5.75h2.66Z"/>
    <path class="cls-2" d="m334.87,44.15c.55-.31,1.17-.47,1.88-.47v2.77h-.7c-.83,0-1.45.2-1.88.58-.42.39-.63,1.07-.63,2.03v5.2h-2.64v-10.44h2.64v1.62c.34-.55.78-.99,1.33-1.3Z"/>
    <path class="cls-2" d="m348.14,49.84h-7.63c.06.75.33,1.34.79,1.77.47.43,1.04.64,1.72.64.98,0,1.68-.42,2.09-1.26h2.84c-.3,1-.88,1.83-1.73,2.48-.85.65-1.9.97-3.15.97-1.01,0-1.91-.22-2.7-.67-.8-.45-1.42-1.08-1.87-1.89s-.67-1.76-.67-2.83.22-2.03.66-2.84,1.05-1.44,1.85-1.88c.79-.44,1.7-.66,2.73-.66s1.88.21,2.66.64,1.39,1.03,1.83,1.82c.43.79.65,1.69.65,2.7,0,.38-.03.72-.08,1.02Zm-2.66-1.77c-.01-.68-.26-1.22-.73-1.63-.48-.41-1.06-.61-1.75-.61-.65,0-1.2.2-1.65.59-.45.4-.72.95-.82,1.65h4.95Z"/>
  </g>
  <g>
    <path class="cls-2" d="m35.41,28.49c-1.31,0-2.21.73-2.26,1.22-.05.55.29,1.08.77,1.45,3.46,2.71-6.52,7.97-5.29,18.7.87,7.59,9.6,17.93,11.41,17.93.07,0,.13-.02.17-.05,1.39-.9-4.09-10.84-5.35-14.12-2.79-7.36,1.42-12.07,3.06-14.8,2.16-3.6,2.68-7.01,1-8.66-1.28-1.26-2.51-1.68-3.51-1.68"/>
    <path class="cls-2" d="m60.56,31.49c-.12,0-.24,0-.36,0-12.72.57-14.58,16.17-14.62,21.82,0,.48.04,2.96-.53,2.96-.11,0-.25-.1-.43-.35-.66-.94-2.55-3.69-3.11-4.43-.16-.21-.38-.32-.6-.32-.45,0-.88.47-.68,1.41.1.48,1.36,5.81,3.18,8,.52.64,1.72,1.53,2.96,1.53s2.45-.85,3.15-3.61c1.21-4.28-.23-21.29,14.26-23.23,1.14-.16,1.59-1.52.91-2.32-.48-.56-1.93-1.48-4.15-1.48"/>
    <path class="cls-2" d="m68.32,46.74c-.46-.14-.48-.43-.14-.93.58-.86,2.94-6.07.03-8.81-.24-.22-.54-.45-.88-.61-.54-.26-1.21.02-1.2.92.07,6.61-3.18,7.88-7.73,7.92h-.54v3.04l4.03.28h.07c4.35.35,6.97,3.22,6.97,6.54,0,3.98-3.31,6.56-6.97,6.56-1.21,0-2.46-.25-3.46-.88-.19-.12-.45-.3-.65-.45,0,.51,0,6.48,0,6.48,1.39.66,2.96,1.05,5,1.05,5.85,0,13.18-4.31,13.18-11.86,0-3.93-3.26-7.83-7.71-9.23"/>
    <path class="cls-2" d="m224.13,60.09c-.31-.38-.9-.81-1.79-1.28l-.2-.11c-.47-.24-.78-.45-.94-.61-.16-.17-.24-.37-.24-.62,0-.3.09-.53.26-.68.17-.15.44-.23.79-.23.29,0,.54.05.76.16.22.11.43.28.62.51l.9-.85-.09-.09c-.28-.28-.61-.5-.99-.65-.38-.15-.78-.23-1.21-.23-.72,0-1.28.19-1.7.56-.41.37-.63.88-.63,1.53,0,.26.04.5.11.72.07.21.18.41.33.59.16.19.38.38.65.57.27.19.62.4,1.03.62l.2.11c.52.28.87.52,1.03.74.17.22.25.47.25.75,0,.35-.11.63-.33.83-.22.2-.52.31-.9.31-.32,0-.61-.07-.89-.22-.27-.14-.56-.4-.9-.75l-.89.91.09.08c.4.4.81.69,1.22.87.41.18.87.26,1.39.26.77,0,1.38-.21,1.83-.62.45-.41.68-.98.68-1.7,0-.61-.16-1.11-.47-1.5m-10.28,2.4c-.07,0-.13,0-.17.02-.04.01-.08.04-.12.07l-.04-.04s.05-.08.07-.12c.02-.04.02-.09.02-.17v-1.8c0-.06,0-.11-.02-.15-.02-.04-.04-.09-.07-.13l.05-.05s.08.06.11.07c.03.01.09.02.17.02h2.76v-1.24h-2.76c-.07,0-.12,0-.16.02-.04,0-.08.04-.13.08l-.04-.05c.04-.06.06-.11.08-.14.01-.04.02-.08.02-.14v-1.66c0-.06,0-.11-.02-.15s-.04-.09-.07-.14l.04-.05c.06.04.11.06.15.08.04.01.09.02.14.02h3.16l-.14-1.26h-4.57v8.18h4.56l.15-1.26h-3.16Zm-6.75,0c-.07,0-.13,0-.17.02-.04.01-.08.04-.11.07l-.05-.05s.06-.08.07-.11c.01-.04.02-.09.02-.17v-6.69h-1.35v8.19h4.15l.2-1.26h-2.77Zm-6.8,0c-.07,0-.13,0-.17.02-.04.01-.08.04-.12.07l-.05-.05s.06-.08.07-.11c.02-.04.02-.09.02-.17v-6.69h-1.35v8.19h4.15l.2-1.26h-2.77Zm-7.66,0c-.07,0-.13,0-.17.02-.04.01-.08.04-.12.07l-.04-.04s.05-.08.07-.12c.02-.04.02-.09.02-.17v-1.8c0-.06,0-.11-.02-.15-.02-.04-.04-.09-.07-.13l.05-.05s.08.06.11.07.09.02.17.02h2.76v-1.24h-2.76c-.07,0-.12,0-.16.02-.04,0-.08.04-.13.08l-.04-.05c.04-.06.06-.11.08-.14.01-.04.02-.08.02-.14v-1.66c0-.06,0-.11-.02-.15s-.04-.09-.07-.14l.04-.05c.06.04.11.06.15.08.04.01.09.02.14.02h3.16l-.14-1.26h-4.57v8.18h4.56l.15-1.26h-3.16Zm-6.32-2.71c-.04-.07-.07-.12-.09-.14-.02-.02-.06-.04-.1-.05v-.05s.08-.03.1-.05c.02-.02.06-.07.09-.14l2.15-3.77h-1.48l-1.22,2.3c-.1.18-.17.34-.2.45-.04.11-.06.3-.08.55h-.06c-.02-.24-.05-.42-.08-.54-.04-.12-.11-.28-.2-.46l-1.23-2.3h-1.47l2.13,3.77c.04.06.07.11.1.13.03.03.07.05.11.06v.05s-.08.03-.11.06c-.03.03-.06.07-.1.13l-2.22,3.98h1.49l1.3-2.49c.12-.22.19-.39.22-.51.03-.12.05-.28.07-.49h.06c.02.23.05.41.08.53.03.12.1.27.2.47l1.3,2.49h1.48l-2.23-3.98Zm-6.37-4.2h-1.34v4.73c0,.78-.16,1.37-.47,1.75-.32.39-.79.58-1.43.58s-1.11-.19-1.43-.58c-.32-.39-.47-.97-.47-1.75v-4.73h-1.34v4.6c0,.68.07,1.23.2,1.65.13.42.34.78.62,1.08.31.32.67.57,1.08.74.42.17.86.26,1.33.26s.92-.09,1.33-.26c.42-.17.78-.42,1.09-.74.28-.29.49-.65.62-1.08.14-.43.2-.98.2-1.65v-4.6Zm-10.97,4.93c-.08-.11-.17-.22-.28-.32-.11-.1-.24-.19-.39-.28l.02-.04c.1.03.19.05.27.06.08.02.16.02.23.02.51,0,.93-.2,1.28-.6.35-.4.52-.89.52-1.48,0-.75-.23-1.31-.68-1.71-.45-.39-1.11-.59-1.99-.59h-2.16v8.18h1.29v-2.88c0-.31,0-.53-.02-.68s-.05-.32-.08-.51l.06-.02c.06.17.13.32.2.45.07.13.18.3.34.52l2.09,3.12h1.46l-2.16-3.24Zm.11-1.74c-.21.19-.54.29-.99.29h-.8c-.07,0-.13,0-.16.02-.04.01-.08.04-.12.07l-.05-.05s.08-.1.1-.14c.02-.04.03-.09.03-.14v-1.87c-.02-.07-.03-.12-.05-.17-.02-.04-.04-.08-.07-.12l.05-.05s.09.06.13.07c.03.01.08.02.15.02h.8c.44,0,.78.1.99.29.21.19.32.48.32.88s-.1.71-.32.9m-6.55,1.28c-.27-.33-.65-.55-1.13-.64v-.07c.4-.12.7-.31.9-.58.2-.27.29-.62.29-1.05,0-.7-.22-1.23-.67-1.59-.45-.37-1.11-.55-1.97-.55h-2.28v8.18h2.45c.88,0,1.57-.23,2.07-.68.5-.45.74-1.04.74-1.76,0-.5-.14-.92-.41-1.25m-1.46-1.42c-.2.2-.5.3-.88.3h-1.05c-.07,0-.12,0-.16.02-.04.02-.08.04-.13.08l-.05-.05s0-.02.02-.03c.06-.09.09-.17.09-.26v-1.76c0-.05-.02-.1-.03-.14-.02-.04-.04-.09-.08-.15l.05-.05s.08.06.12.07c.03.01.09.02.16.02h.9c.47,0,.81.09,1.02.26.21.17.32.45.32.81s-.1.66-.31.85m.25,3.61c-.26.23-.62.35-1.08.35h-1.09c-.07,0-.12,0-.16.02-.03.01-.08.04-.13.08l-.05-.05c.04-.05.07-.1.08-.13.01-.03.02-.08.02-.16v-2.11c0-.06,0-.11-.02-.14,0-.04-.04-.08-.08-.14l.05-.05c.05.04.09.06.13.08.04.01.09.02.16.02h1.04c.29,0,.53.03.7.08.18.06.33.15.46.29.11.11.19.25.25.41.06.16.09.32.09.48,0,.41-.13.74-.38.97m-6.73-2.05h-2.83v1.21h2.83v-1.21Zm-8.52,2.3c-.07,0-.13,0-.17.02-.04.01-.08.04-.12.07l-.04-.04s.05-.08.07-.12c.02-.04.02-.09.02-.17v-1.8c0-.06,0-.11-.02-.15-.02-.04-.04-.09-.07-.13l.05-.05s.08.06.12.07c.04.01.09.02.17.02h2.76v-1.24h-2.76c-.07,0-.12,0-.16.02-.04,0-.08.04-.13.08l-.05-.05c.04-.06.07-.11.08-.14.02-.04.02-.08.02-.14v-1.66c0-.06,0-.11-.02-.15-.02-.04-.04-.09-.07-.14l.04-.05c.06.04.11.06.15.08.04.01.09.02.14.02h3.16l-.14-1.26h-4.57v8.18h4.56l.15-1.26h-3.16Zm-4.88-6.92h-1.34v8.19h1.34v-8.19Zm-4.68.01h-1.3v5.02c0,.23.02.48.06.73.04.25.1.56.19.91h-.06c-.11-.3-.21-.56-.31-.78-.1-.22-.22-.42-.36-.63l-3.61-5.26h-1.2v8.18h1.3v-5.03c0-.22-.02-.43-.05-.65-.03-.21-.1-.54-.2-.99h.06c.13.36.23.63.32.8.08.17.2.37.35.59l3.61,5.27h1.21v-8.18Zm-10.58,1.03c-.77-.79-1.76-1.18-2.98-1.18s-2.15.4-2.91,1.2c-.76.8-1.14,1.81-1.14,3.03s.38,2.26,1.15,3.05c.76.79,1.75,1.19,2.94,1.19s2.18-.4,2.94-1.19c.77-.79,1.15-1.81,1.15-3.04s-.38-2.27-1.15-3.06m-.96,5.2c-.5.54-1.16.81-1.98.81s-1.48-.27-1.99-.81-.75-1.26-.75-2.15.25-1.6.76-2.15c.51-.54,1.17-.82,1.99-.82s1.46.28,1.97.83c.5.55.76,1.26.76,2.13s-.25,1.61-.75,2.15m-10.64.69c-.08,0-.13,0-.17.02-.04.01-.08.04-.11.07l-.05-.05s.06-.08.07-.11c.01-.04.02-.09.02-.17v-6.69h-1.35v8.19h4.15l.2-1.26h-2.77Zm-6.81,0c-.07,0-.13,0-.17.02-.04.01-.08.04-.11.07l-.05-.05s.06-.08.07-.11c.01-.04.02-.09.02-.17v-6.69h-1.35v8.19h4.15l.2-1.26h-2.77Zm-6.98-6.91h-1.17l-2.97,8.18h1.35l.87-2.45h2.69l.87,2.45h1.34l-2.97-8.18Zm.45,4.57s-.08-.03-.12-.03c-.04,0-.08-.01-.14-.01h-1.55s-.09,0-.12,0c-.03,0-.08.02-.13.04l-.04-.06s.06-.05.08-.08c.02-.03.04-.06.05-.11l.78-2.24c.04-.1.06-.23.08-.41.02-.17.04-.37.05-.6h.06c0,.22.02.42.04.6.02.17.05.31.08.41l.77,2.24s.03.08.05.11c.02.03.05.05.09.08l-.03.06Zm-7.22-4.57l-1.54,5.37c-.06.21-.1.41-.13.58-.02.17-.04.44-.05.82h-.07c-.04-.4-.07-.68-.1-.85-.03-.17-.08-.35-.14-.55l-1.4-4.14-1.4,4.15c-.07.19-.12.37-.15.54-.03.17-.07.45-.1.85h-.07c-.01-.38-.03-.66-.05-.82-.02-.17-.07-.36-.13-.58l-1.54-5.37h-1.43l2.48,8.18h1.21l1.02-3.27c.03-.1.06-.25.08-.43.02-.18.04-.41.05-.67h.06c.01.26.03.48.05.67.02.18.05.33.08.44l1.02,3.27h1.2l2.49-8.18h-1.43Z"/>
    <path class="cls-2" d="m224.38,35.38h-2.35v9.12c0,.43.03.87.1,1.33.07.46.19,1.01.35,1.66l-.11.02c-.19-.56-.38-1.04-.57-1.43-.19-.39-.4-.77-.66-1.14l-6.56-9.55h-2.18v14.84h2.36v-9.14c0-.39-.03-.78-.09-1.17-.06-.39-.18-.99-.36-1.79l.11-.02c.24.67.43,1.16.58,1.47.15.32.36.67.64,1.08l6.55,9.57h2.18v-14.84Zm-19.07,1.87c-1.39-1.43-3.2-2.15-5.41-2.15s-3.9.72-5.29,2.17c-1.39,1.45-2.07,3.29-2.07,5.51s.69,4.1,2.08,5.54c1.39,1.44,3.17,2.16,5.35,2.16s3.95-.72,5.34-2.16c1.39-1.44,2.09-3.28,2.09-5.52s-.7-4.13-2.09-5.56m-1.74,9.44c-.91.98-2.11,1.47-3.6,1.47s-2.69-.49-3.6-1.47c-.91-.98-1.37-2.28-1.37-3.9s.46-2.91,1.38-3.9c.92-.99,2.12-1.48,3.61-1.48s2.65.5,3.57,1.5c.92,1,1.37,2.29,1.37,3.88s-.45,2.92-1.36,3.9m-16.19-11.33h-2.44v14.86h2.44v-14.86Zm-7.2.02h-8.79l-.31,2.23h3.07c.13,0,.23-.01.3-.04.07-.02.14-.07.21-.13l.09.08c-.08.11-.12.2-.15.26-.02.07-.03.15-.03.25v12.19h2.4v-12.19c0-.11-.01-.2-.04-.28-.02-.07-.07-.15-.13-.24l.08-.08c.09.07.17.12.23.14.06.02.16.04.28.04h3.09l-.32-2.23Zm-16.31,0h-2.12l-5.4,14.84h2.45l1.58-4.46h4.89l1.57,4.46h2.44l-5.4-14.84Zm.82,8.31c-.08-.03-.15-.05-.22-.06-.07-.01-.15-.02-.25-.02h-2.81c-.09,0-.17,0-.22.02-.06,0-.14.03-.24.07l-.07-.11c.06-.05.11-.1.15-.15.03-.05.07-.12.09-.2l1.41-4.07c.06-.17.11-.42.15-.74.04-.32.06-.68.08-1.08h.11c.02.41.04.76.08,1.08.04.32.09.56.15.74l1.39,4.07c.03.08.06.15.1.2.04.05.09.1.16.15l-.06.11Zm-15.93.65c-.14-.2-.31-.39-.51-.57-.2-.18-.44-.35-.71-.51l.04-.07c.18.05.35.08.49.11.15.02.29.04.42.04.92,0,1.7-.36,2.33-1.09.63-.73.95-1.62.95-2.68,0-1.35-.41-2.39-1.23-3.1-.82-.71-2.02-1.07-3.61-1.07h-3.92v14.84h2.34v-5.23c0-.56-.02-.97-.04-1.23-.03-.27-.08-.57-.16-.92l.11-.03c.12.32.24.59.36.81.12.23.33.54.61.95l3.81,5.66h2.66l-3.92-5.89Zm.2-3.15c-.38.35-.98.52-1.8.52h-1.44c-.13,0-.23.01-.3.04-.07.02-.14.07-.21.13l-.08-.08c.08-.09.14-.17.17-.25.03-.08.05-.16.05-.26v-3.4c-.03-.12-.06-.22-.09-.3-.03-.07-.08-.15-.13-.23l.08-.08c.09.07.17.12.23.14.06.02.16.03.28.03h1.44c.81,0,1.41.17,1.79.52.39.35.58.88.58,1.6s-.19,1.28-.58,1.63m-16.26-10.37l-1.02,2.88h1.8l1.93-2.88h-2.7Zm-.55,17.12c-.13,0-.23.01-.3.04-.07.02-.14.07-.22.13l-.07-.07c.05-.08.1-.15.12-.23.03-.08.04-.17.04-.3v-3.28c0-.1-.02-.2-.04-.28-.03-.08-.07-.16-.12-.24l.08-.08c.08.06.15.11.21.13.06.02.17.04.3.04h5.01v-2.25h-5.01c-.13,0-.22,0-.29.03-.07.02-.15.07-.24.14l-.08-.08c.07-.11.12-.19.14-.26.02-.07.04-.15.04-.25v-3.02c0-.11-.02-.2-.04-.28-.03-.08-.07-.16-.12-.25l.07-.08c.11.07.19.12.27.14.07.02.16.04.26.04h5.73l-.25-2.29h-8.29v14.84h8.27l.27-2.29h-5.73Zm-9.96-10.46c-1.48-1.39-3.35-2.09-5.63-2.09h-3.98v14.84h3.9c2.35,0,4.26-.7,5.73-2.1,1.47-1.4,2.2-3.17,2.2-5.32s-.74-3.94-2.22-5.33m-1.7,9.06c-1.02.97-2.31,1.46-3.88,1.46h-1.17c-.14,0-.24,0-.3.03-.06.02-.13.07-.21.14l-.1-.08c.08-.08.13-.15.15-.21.02-.06.03-.17.03-.3v-9.53c0-.1-.01-.19-.04-.26-.02-.07-.07-.15-.14-.25l.1-.09c.09.07.17.12.23.14.06.02.16.04.28.04h1.29c1.52,0,2.78.49,3.79,1.47,1,.98,1.51,2.22,1.51,3.73s-.51,2.76-1.53,3.73m-18.23-15.72l-1.02,2.88h1.8l1.93-2.88h-2.7Zm-.55,17.12c-.13,0-.23.01-.3.04-.07.02-.14.07-.22.13l-.07-.07c.06-.08.1-.15.13-.23.03-.08.04-.17.04-.3v-3.28c0-.1-.02-.2-.04-.28-.03-.08-.07-.16-.13-.24l.08-.08c.08.06.15.11.21.13.06.02.17.04.3.04h5.01v-2.25h-5.01c-.13,0-.22,0-.29.03-.07.02-.14.07-.24.14l-.08-.08c.07-.11.12-.19.14-.26.02-.07.04-.15.04-.25v-3.02c0-.11-.02-.2-.04-.28-.03-.08-.07-.16-.13-.25l.07-.08c.11.07.2.12.27.14s.16.04.26.04h5.73l-.25-2.29h-8.29v14.84h8.27l.27-2.29h-5.73Zm-7.67-12.55h-8.36v14.84h2.45v-5.99c0-.12-.01-.22-.04-.29-.02-.07-.07-.14-.13-.23l.08-.08c.09.07.17.12.23.14.06.02.16.04.28.04h4.97v-2.25h-5.01c-.15,0-.26,0-.31.03-.06.02-.13.06-.21.12l-.08-.07c.09-.11.15-.19.18-.26.03-.07.04-.15.04-.25v-3c-.03-.15-.06-.25-.08-.31-.03-.06-.07-.13-.14-.2l.09-.08c.09.07.17.11.23.14.06.02.16.03.28.03h5.91l-.39-2.31Z"/>
  </g>
  <path class="cls-1" d="m270.99,67.4c-10.77,0-19.53-8.76-19.53-19.53s8.76-19.53,19.53-19.53v6.57c-7.14,0-12.96,5.81-12.96,12.96s5.81,12.96,12.96,12.96v6.57Z"/>
</svg>