<?xml version="1.0" encoding="UTF-8"?>
<svg width="400px" height="442px" viewBox="0 0 400 442" version="1.1" xmlns="http://www.w3.org/2000/svg" xmlns:xlink="http://www.w3.org/1999/xlink">
    <title>SG picto</title>
    <g id="SG-picto" stroke="none" stroke-width="1" fill="none" fill-rule="evenodd">
        <rect fill="#FFFFFF" x="0" y="0" width="400" height="442"></rect>
        <g id="FWB-sg-picto" transform="translate(98.000000, 72.000000)" fill="#3A4C54">
            <path d="M28.6710487,182 C9.01194713,160.632316 -1.13402206,132.903613 0.100781493,103.922215 C1.33558505,74.9408173 13.817391,48.1773052 35.2257976,28.555179 C79.4266197,-11.9417678 148.405833,-9.01025708 189,35.0958878 L154.528401,66.6750866 C143.322559,54.4972521 128.03672,47.402072 111.480062,46.6987148 C94.8925342,46.0004916 79.0870488,51.7711012 66.8727836,62.9529407 C54.6688085,74.1347802 47.558398,89.3930112 46.853531,105.909071 C46.148664,122.430264 51.9316606,138.237833 63.1426479,150.420801 L28.6710487,182" id="Fill-1"></path>
            <path d="M95.3223032,297 C68.0689482,297 42.1962245,286.92048 22,268.330738 L53.5697527,233.862794 C65.7490769,245.06912 81.4544002,250.831786 98.0681686,250.14747 C114.58442,249.442572 129.832955,242.336999 141.01145,230.127351 C152.195077,217.917703 157.96396,202.075518 157.260813,185.518144 C156.567931,168.965916 149.464609,153.674271 137.290417,142.467944 L168.86017,108 C190.21633,127.659952 202.667674,154.487219 203.899464,183.526938 C205.131255,212.571802 195.010046,240.361228 175.398922,261.775706 C155.782665,283.185038 129.027159,295.662238 100.05443,296.90224 C98.4736328,296.969129 96.8877031,297 95.3223032,297" id="Fill-2"></path>
        </g>
    </g>
</svg>