<?xml version="1.0" encoding="UTF-8"?>
<svg width="24px" height="24px" viewBox="0 0 24 24" version="1.1" xmlns="http://www.w3.org/2000/svg" xmlns:xlink="http://www.w3.org/1999/xlink">
    <title>pastille MJ24</title>
    <g id="pastille-MJ" stroke="none" stroke-width="1" fill="none" fill-rule="evenodd">
        <g id="FWB-mj-pastille" fill-rule="nonzero">
            <path d="M22,10.9998649 C22,17.0752036 17.0752036,22 11.0001351,22 C4.92479642,22 0,17.0752036 0,10.9998649 C0,4.92479642 4.92479642,0 11.0001351,0 C17.0752036,0 22,4.92479642 22,10.9998649" id="Fill-1" fill="#AB74A5"></path>
            <polyline id="Fill-2" fill="#FFFFFE" points="15.7671305 16.9979243 13.8427148 16.3959027 15.8822388 9.87715398 11.0941672 6.53144843 6.15964333 10.0179319 8.32940714 16.2024343 6.42633783 16.8703865 3.75236738 9.24946266 11.0879524 4.06688856 18.2479028 9.06950466 15.7671305 16.9979243"></polyline>
        </g>
        <g id="FWB-mj-pastille-Copy" fill-rule="nonzero">
            <path d="M24,11.9998526 C24,18.6274948 18.6274948,24 12.0001474,24 C5.37250519,24 0,18.6274948 0,11.9998526 C0,5.37250519 5.37250519,0 12.0001474,0 C18.6274948,0 24,5.37250519 24,11.9998526" id="Fill-1" fill="#AB74A5"></path>
            <polyline id="Fill-2" fill="#FFFFFE" points="17.261753 18 15.1376058 17.3482113 17.3888081 10.2905801 12.1037915 6.66829656 6.65712262 10.4429957 9.05208217 17.1387496 6.95149685 17.8619191 4 9.61099967 12.0969317 4 20 9.41616516 17.261753 18"></polyline>
        </g>
    </g>
</svg>