<?xml version="1.0" encoding="UTF-8"?>
<svg id="Calque_1" data-name="Calque 1" xmlns="http://www.w3.org/2000/svg" viewBox="0 0 422.59 95.6">
  <defs>
    <style>
      .cls-1 {
        fill: #c085b9;
      }

      .cls-2 {
        fill: #1d1d1b;
      }
    </style>
  </defs>
  <polygon class="cls-1" points="284.87 67.3 278.72 65.14 285.21 46.62 270.65 36.3 256.08 46.62 262.58 65.14 256.42 67.3 248.3 44.14 270.65 28.3 292.99 44.14 284.87 67.3"/>
  <rect class="cls-2" x="235.58" y="28.31" width=".93" height="39.16"/>
  <g>
    <path class="cls-2" d="m35.08,28.38c-1.3,0-2.19.72-2.24,1.21-.05.54.29,1.07.76,1.44,3.44,2.69-6.48,7.92-5.25,18.56.87,7.53,9.53,17.8,11.32,17.8.07,0,.13-.02.17-.05,1.38-.89-4.06-10.76-5.31-14.01-2.77-7.3,1.41-11.98,3.04-14.69,2.14-3.58,2.66-6.96.99-8.59-1.27-1.25-2.5-1.67-3.48-1.67"/>
    <path class="cls-2" d="m60.05,31.35c-.12,0-.23,0-.35,0-12.63.57-14.47,16.05-14.51,21.66,0,.48.04,2.94-.53,2.94-.11,0-.25-.1-.42-.34-.66-.94-2.53-3.66-3.09-4.4-.16-.21-.38-.31-.59-.31-.45,0-.87.46-.68,1.4.1.47,1.35,5.76,3.15,7.94.52.63,1.71,1.52,2.94,1.52s2.43-.84,3.13-3.59c1.2-4.25-.23-21.13,14.16-23.06,1.14-.15,1.57-1.51.91-2.3-.47-.56-1.92-1.47-4.12-1.47"/>
    <path class="cls-2" d="m67.75,46.5c-.45-.14-.48-.42-.14-.93.57-.86,2.92-6.03.03-8.74-.23-.22-.54-.45-.87-.61-.53-.26-1.2.02-1.19.91.07,6.56-3.16,7.82-7.67,7.86h-.54v3.01l4,.28h.07c4.32.35,6.92,3.2,6.92,6.49,0,3.95-3.28,6.51-6.92,6.51-1.2,0-2.44-.25-3.44-.88-.19-.12-.44-.3-.64-.45,0,.51,0,6.43,0,6.43,1.38.66,2.94,1.05,4.96,1.05,5.81,0,13.08-4.28,13.08-11.77,0-3.9-3.24-7.77-7.66-9.16"/>
    <path class="cls-2" d="m222.4,59.74c-.31-.38-.9-.81-1.78-1.27l-.2-.11c-.46-.24-.77-.44-.93-.61-.16-.16-.24-.37-.24-.61,0-.3.09-.52.26-.67.17-.15.43-.23.78-.23.28,0,.54.05.75.16.22.1.42.27.62.51l.9-.85-.09-.09c-.28-.28-.61-.5-.98-.64-.37-.15-.77-.22-1.2-.22-.71,0-1.27.18-1.69.56-.41.37-.62.88-.62,1.52,0,.26.04.5.11.72.07.21.18.41.33.58.16.19.37.38.65.57.27.19.61.4,1.03.62l.2.1c.52.27.86.52,1.02.74.17.22.25.47.25.75,0,.35-.11.62-.33.82-.22.2-.52.3-.9.3-.32,0-.61-.07-.88-.22-.26-.14-.56-.39-.89-.74l-.88.9.09.08c.4.4.8.69,1.21.86.4.18.86.26,1.38.26.76,0,1.37-.2,1.82-.61.45-.41.67-.97.67-1.69,0-.61-.15-1.1-.46-1.49m-10.2,2.38c-.07,0-.13,0-.17.02-.04.01-.08.04-.12.07l-.04-.04s.05-.08.07-.12c.01-.04.02-.09.02-.16v-1.79c0-.06,0-.11-.02-.15-.01-.04-.04-.09-.07-.13l.04-.04s.08.06.11.07c.03.01.09.02.17.02h2.74v-1.23h-2.74c-.07,0-.12,0-.16.02-.04,0-.08.04-.13.07l-.04-.05c.04-.06.06-.11.07-.14.01-.04.02-.08.02-.14v-1.65c0-.06,0-.11-.02-.15s-.04-.09-.07-.13l.04-.04c.06.04.11.06.15.08.04.01.09.02.14.02h3.14l-.14-1.25h-4.53v8.11h4.52l.15-1.25h-3.14Zm-6.7,0c-.07,0-.13,0-.17.02-.04.01-.07.04-.11.07l-.05-.05s.06-.07.07-.11c.01-.04.02-.09.02-.17v-6.64h-1.34v8.13h4.12l.2-1.25h-2.75Zm-6.75,0c-.07,0-.13,0-.17.02-.04.01-.08.04-.12.07l-.04-.05s.06-.07.07-.11c.01-.04.02-.09.02-.17v-6.64h-1.34v8.13h4.12l.2-1.25h-2.75Zm-7.6,0c-.07,0-.13,0-.17.02-.04.01-.08.04-.12.07l-.04-.04s.05-.08.07-.12c.01-.04.02-.09.02-.16v-1.79c0-.06,0-.11-.02-.15-.01-.04-.04-.09-.07-.13l.05-.04s.08.06.11.07.09.02.17.02h2.74v-1.23h-2.74c-.07,0-.12,0-.16.02-.04,0-.08.04-.13.07l-.04-.05c.04-.06.06-.11.08-.14.01-.04.02-.08.02-.14v-1.65c0-.06,0-.11-.02-.15s-.04-.09-.07-.13l.04-.04c.06.04.11.06.15.08.04.01.09.02.14.02h3.13l-.14-1.25h-4.53v8.11h4.52l.15-1.25h-3.13Zm-6.27-2.69c-.04-.07-.07-.12-.09-.14-.02-.02-.06-.04-.1-.05v-.05s.08-.03.1-.05c.02-.02.06-.07.09-.14l2.13-3.75h-1.47l-1.21,2.28c-.1.18-.17.33-.2.45-.04.11-.06.3-.08.55h-.06c-.02-.24-.05-.41-.08-.53-.04-.12-.1-.27-.2-.46l-1.22-2.28h-1.46l2.12,3.75c.04.06.07.1.09.13.03.03.07.04.11.06v.05s-.08.03-.11.06c-.03.03-.06.07-.09.13l-2.2,3.95h1.48l1.29-2.47c.12-.22.19-.39.22-.51.03-.12.05-.28.07-.49h.06c.02.23.04.41.08.52.03.12.1.27.2.47l1.29,2.47h1.47l-2.21-3.95Zm-6.33-4.17h-1.33v4.7c0,.78-.15,1.36-.47,1.74-.31.38-.78.57-1.42.57s-1.1-.19-1.42-.57c-.31-.38-.47-.96-.47-1.74v-4.7h-1.33v4.56c0,.67.07,1.22.2,1.64.13.42.34.78.62,1.07.31.32.66.57,1.08.74.42.17.86.26,1.32.26s.91-.09,1.32-.26c.41-.17.77-.42,1.08-.74.28-.29.48-.65.62-1.07.13-.42.2-.97.2-1.64v-4.56Zm-10.89,4.9c-.08-.11-.17-.21-.28-.31-.11-.1-.24-.19-.39-.28l.02-.04c.1.03.19.05.27.06.08.01.16.02.23.02.5,0,.93-.2,1.27-.6.34-.4.52-.89.52-1.47,0-.74-.23-1.3-.68-1.7-.45-.39-1.11-.59-1.97-.59h-2.15v8.11h1.28v-2.86c0-.3,0-.53-.02-.67s-.04-.31-.08-.5l.06-.02c.06.17.13.32.2.44.07.12.18.3.34.52l2.08,3.09h1.45l-2.14-3.22Zm.11-1.73c-.21.19-.54.28-.98.28h-.79c-.07,0-.13,0-.16.02-.04.01-.07.04-.12.07l-.05-.04s.08-.1.09-.14c.02-.04.03-.09.03-.14v-1.86c-.02-.07-.03-.12-.05-.16-.02-.04-.04-.08-.07-.12l.05-.04s.09.06.13.07c.03.01.08.02.15.02h.79c.44,0,.77.09.98.28.21.19.32.48.32.88s-.1.7-.31.89m-6.5,1.27c-.27-.33-.65-.54-1.12-.63v-.07c.4-.12.7-.31.89-.58.19-.26.29-.61.29-1.04,0-.69-.22-1.22-.66-1.58-.45-.37-1.1-.55-1.96-.55h-2.26v8.11h2.44c.88,0,1.56-.23,2.05-.68.49-.45.74-1.03.74-1.75,0-.5-.13-.91-.4-1.24m-1.45-1.41c-.2.2-.49.3-.87.3h-1.05c-.07,0-.12,0-.15.02-.04.01-.08.04-.12.08l-.05-.05s0-.02.02-.03c.06-.09.09-.17.09-.26v-1.74c0-.05-.01-.1-.03-.13-.01-.04-.04-.09-.08-.15l.05-.04s.08.06.12.07c.03.01.09.02.16.02h.89c.47,0,.81.09,1.02.26.21.17.31.44.31.81s-.1.65-.31.85m.24,3.58c-.26.23-.61.35-1.07.35h-1.08c-.07,0-.12,0-.16.02-.03.01-.07.04-.12.07l-.04-.05c.04-.05.07-.09.08-.12.01-.03.02-.08.02-.15v-2.09c0-.06,0-.1-.02-.14,0-.04-.04-.08-.08-.14l.04-.05c.05.04.09.06.12.08.04.01.09.02.16.02h1.03c.29,0,.52.03.7.08.18.06.33.15.46.29.1.11.19.25.25.4.06.15.09.31.09.48,0,.41-.13.73-.38.96m-6.68-2.04h-2.81v1.2h2.81v-1.2Zm-8.46,2.28c-.07,0-.13,0-.17.02-.04.01-.08.04-.12.07l-.04-.04s.05-.08.07-.12c.02-.04.02-.09.02-.16v-1.79c0-.06,0-.11-.02-.15-.01-.04-.04-.09-.07-.13l.04-.04s.08.06.12.07c.04.01.09.02.17.02h2.74v-1.23h-2.74c-.07,0-.12,0-.16.02-.04,0-.08.04-.13.07l-.05-.05c.04-.06.07-.11.08-.14.01-.04.02-.08.02-.14v-1.65c0-.06,0-.11-.02-.15-.01-.04-.04-.09-.07-.13l.04-.04c.06.04.11.06.15.08.04.01.09.02.14.02h3.13l-.14-1.25h-4.53v8.11h4.52l.15-1.25h-3.13Zm-4.85-6.87h-1.33v8.13h1.33v-8.13Zm-4.64.01h-1.29v4.99c0,.23.02.47.06.72.04.25.1.55.19.91h-.06c-.11-.3-.21-.56-.31-.77-.1-.21-.22-.42-.36-.62l-3.58-5.22h-1.19v8.11h1.29v-5c0-.21-.02-.43-.05-.64-.03-.21-.1-.54-.2-.98h.06c.13.36.23.62.32.8.08.17.2.37.35.59l3.58,5.23h1.2v-8.11Zm-10.5,1.02c-.76-.78-1.75-1.17-2.96-1.17s-2.13.39-2.89,1.19c-.76.79-1.14,1.8-1.14,3.01s.38,2.24,1.14,3.03c.76.79,1.73,1.18,2.92,1.18s2.16-.39,2.92-1.18c.76-.79,1.14-1.79,1.14-3.02s-.38-2.25-1.14-3.04m-.95,5.16c-.5.54-1.15.81-1.97.81s-1.47-.27-1.97-.81-.75-1.25-.75-2.13.25-1.59.75-2.13c.5-.54,1.16-.81,1.98-.81s1.45.27,1.95.82c.5.55.75,1.25.75,2.12s-.25,1.59-.75,2.13m-10.56.68c-.07,0-.13,0-.17.02-.04.01-.07.04-.11.07l-.05-.05s.06-.07.07-.11c.01-.04.02-.09.02-.17v-6.64h-1.34v8.13h4.12l.2-1.25h-2.75Zm-6.76,0c-.07,0-.13,0-.17.02-.04.01-.08.04-.11.07l-.05-.05s.06-.07.07-.11c.01-.04.02-.09.02-.17v-6.64h-1.34v8.13h4.12l.2-1.25h-2.75Zm-6.93-6.86h-1.16l-2.95,8.11h1.34l.86-2.44h2.67l.86,2.44h1.33l-2.95-8.11Zm.45,4.54s-.08-.03-.12-.03c-.04,0-.08-.01-.14-.01h-1.54s-.09,0-.12,0c-.03,0-.07.02-.13.04l-.04-.06s.06-.05.08-.08c.02-.03.04-.06.05-.11l.77-2.22c.04-.09.06-.23.08-.4.02-.17.04-.37.04-.59h.06c0,.22.02.42.04.59.02.17.05.31.08.4l.76,2.22s.03.08.05.11c.02.03.05.05.09.08l-.03.06Zm-7.17-4.54l-1.53,5.33c-.06.21-.1.4-.12.57-.02.17-.04.44-.05.82h-.07c-.04-.39-.07-.67-.1-.84-.03-.17-.08-.35-.14-.55l-1.39-4.11-1.39,4.12c-.07.19-.12.37-.15.54-.03.17-.07.45-.1.84h-.07c-.01-.38-.03-.65-.05-.82-.02-.16-.07-.35-.13-.57l-1.53-5.33h-1.42l2.46,8.11h1.21l1.01-3.24c.03-.1.06-.25.08-.43.02-.18.04-.41.05-.67h.06c.01.26.03.48.05.66.02.18.05.33.08.43l1.02,3.24h1.2l2.47-8.11h-1.42Z"/>
    <path class="cls-2" d="m222.65,35.22h-2.33v9.05c0,.42.03.86.1,1.32.07.45.18,1,.34,1.65l-.1.02c-.19-.56-.38-1.03-.56-1.42-.18-.39-.4-.76-.65-1.13l-6.51-9.48h-2.17v14.73h2.35v-9.07c0-.39-.03-.77-.09-1.16-.06-.39-.18-.98-.36-1.78l.1-.02c.24.67.43,1.15.58,1.46.15.31.36.67.64,1.07l6.5,9.5h2.17v-14.73Zm-18.93,1.85c-1.38-1.42-3.17-2.13-5.37-2.13s-3.87.72-5.25,2.16c-1.37,1.44-2.06,3.27-2.06,5.47s.69,4.07,2.06,5.5c1.38,1.43,3.14,2.14,5.31,2.14s3.92-.71,5.3-2.14c1.38-1.43,2.08-3.25,2.08-5.48s-.69-4.09-2.08-5.52m-1.73,9.37c-.91.97-2.1,1.46-3.58,1.46s-2.67-.49-3.58-1.46c-.9-.98-1.36-2.27-1.36-3.87s.46-2.89,1.37-3.87c.91-.98,2.11-1.47,3.59-1.47s2.63.5,3.55,1.49c.91.99,1.36,2.28,1.36,3.85s-.45,2.9-1.35,3.87m-16.07-11.25h-2.42v14.75h2.42v-14.75Zm-7.15.02h-8.72l-.31,2.21h3.05c.13,0,.23-.01.3-.04.07-.02.14-.07.21-.13l.09.08c-.08.11-.12.2-.15.26-.02.07-.03.15-.03.24v12.1h2.39v-12.1c0-.11-.01-.2-.04-.28-.02-.07-.07-.15-.13-.24l.08-.08c.09.07.16.12.23.14.06.02.16.04.28.04h3.06l-.32-2.21Zm-16.18,0h-2.11l-5.36,14.73h2.43l1.57-4.42h4.85l1.56,4.42h2.42l-5.36-14.73Zm.81,8.24c-.08-.03-.15-.05-.22-.06-.07-.01-.15-.02-.25-.02h-2.79c-.09,0-.16,0-.22.02-.06,0-.14.03-.23.07l-.07-.1c.06-.05.11-.1.15-.15.03-.05.07-.12.09-.2l1.4-4.04c.06-.17.11-.42.15-.73.04-.31.06-.67.08-1.07h.11c.01.4.04.76.08,1.07.04.32.09.56.15.73l1.38,4.04c.03.08.06.15.1.2.04.05.09.1.16.15l-.06.1Zm-15.81.64c-.14-.2-.31-.39-.51-.56-.2-.18-.44-.34-.71-.5l.04-.07c.18.05.34.08.49.11.15.02.28.04.42.04.91,0,1.68-.36,2.31-1.09.63-.72.94-1.61.94-2.66,0-1.34-.41-2.37-1.23-3.08-.82-.71-2.01-1.06-3.58-1.06h-3.9v14.73h2.33v-5.19c0-.55-.01-.96-.04-1.22-.03-.26-.08-.57-.16-.91l.1-.03c.12.31.24.58.36.81.12.22.32.54.61.94l3.78,5.62h2.64l-3.89-5.85Zm.2-3.13c-.38.34-.98.51-1.78.51h-1.43c-.13,0-.23.01-.3.04-.07.02-.14.07-.21.13l-.08-.08c.08-.09.14-.17.17-.25.03-.07.05-.16.05-.26v-3.37c-.03-.12-.06-.22-.09-.29-.03-.07-.07-.15-.13-.22l.08-.08c.09.07.17.12.23.14.06.02.15.03.28.03h1.43c.8,0,1.4.17,1.78.51.39.34.58.87.58,1.59s-.19,1.27-.57,1.62m-16.14-10.29l-1.02,2.85h1.78l1.91-2.85h-2.68Zm-.55,16.99c-.13,0-.23.01-.3.04-.07.02-.14.07-.22.13l-.07-.07c.05-.08.09-.15.12-.22.03-.07.04-.17.04-.3v-3.25c0-.1-.01-.19-.04-.27-.03-.08-.07-.16-.12-.23l.08-.08c.07.06.15.1.21.12.06.02.16.04.3.04h4.97v-2.23h-4.97c-.12,0-.22,0-.29.03-.07.02-.15.07-.23.13l-.08-.08c.07-.11.12-.19.14-.26.02-.07.04-.15.04-.25v-3c0-.1-.01-.2-.04-.28-.03-.08-.07-.16-.12-.24l.07-.08c.1.07.19.12.26.14.07.02.16.04.26.04h5.69l-.25-2.27h-8.23v14.73h8.21l.27-2.27h-5.69Zm-9.89-10.38c-1.47-1.38-3.33-2.08-5.59-2.08h-3.95v14.73h3.87c2.33,0,4.23-.69,5.69-2.09,1.46-1.39,2.19-3.15,2.19-5.28s-.73-3.91-2.2-5.29m-1.69,9c-1.01.97-2.3,1.45-3.85,1.45h-1.16c-.14,0-.24,0-.3.03-.06.02-.13.07-.21.13l-.09-.08c.08-.08.12-.15.15-.21.02-.06.03-.16.03-.3v-9.46c0-.1-.01-.19-.04-.26-.02-.07-.07-.15-.14-.25l.09-.09c.09.07.17.12.23.14.06.02.16.04.28.04h1.28c1.51,0,2.76.49,3.76,1.46,1,.97,1.49,2.21,1.49,3.7s-.51,2.74-1.51,3.7m-18.1-15.61l-1.02,2.85h1.78l1.91-2.85h-2.68Zm-.55,16.99c-.13,0-.23.01-.3.04-.07.02-.14.07-.22.13l-.07-.07c.06-.08.1-.15.12-.22.03-.07.04-.17.04-.3v-3.25c0-.1-.01-.19-.04-.27-.03-.08-.07-.16-.12-.23l.08-.08c.08.06.15.1.21.12.06.02.16.04.3.04h4.97v-2.23h-4.97c-.12,0-.22,0-.28.03-.07.02-.14.07-.23.13l-.08-.08c.07-.11.12-.19.14-.26.02-.07.04-.15.04-.25v-3c0-.1-.01-.2-.04-.28-.03-.08-.07-.16-.12-.24l.07-.08c.1.07.19.12.27.14s.16.04.25.04h5.69l-.25-2.27h-8.23v14.73h8.21l.27-2.27h-5.69Zm-7.62-12.46h-8.3v14.73h2.43v-5.95c0-.12-.01-.22-.04-.29-.02-.07-.07-.14-.13-.23l.08-.08c.09.07.17.12.23.14.06.02.16.04.28.04h4.93v-2.23h-4.97c-.15,0-.26,0-.31.03-.06.02-.12.06-.21.12l-.08-.07c.09-.11.15-.19.18-.26.03-.07.04-.15.04-.25v-2.98c-.03-.15-.06-.25-.08-.31-.03-.06-.07-.13-.13-.2l.09-.08c.09.07.17.11.23.13.06.02.16.03.28.03h5.86l-.38-2.29Z"/>
  </g>
  <g>
    <path class="cls-2" d="m320.49,34.14v13.23h-2.65v-8.61l-3.55,8.61h-2.01l-3.56-8.61v8.61h-2.65v-13.23h3.01l4.21,9.84,4.21-9.84h3Z"/>
    <path class="cls-2" d="m323.06,39.26c.42-.82,1-1.45,1.73-1.9.73-.44,1.54-.66,2.44-.66.78,0,1.47.16,2.06.47.59.32,1.06.71,1.41,1.2v-1.5h2.67v10.5h-2.67v-1.54c-.34.49-.81.9-1.41,1.22-.6.32-1.29.48-2.08.48-.88,0-1.69-.23-2.42-.68-.73-.45-1.3-1.1-1.73-1.92s-.63-1.78-.63-2.85.21-2,.63-2.82Zm7.25,1.2c-.25-.46-.59-.82-1.02-1.06-.43-.25-.89-.37-1.38-.37s-.95.12-1.36.36c-.42.24-.76.59-1.02,1.05s-.39,1.01-.39,1.64.13,1.19.39,1.66c.26.47.6.84,1.02,1.09s.88.38,1.36.38.95-.12,1.38-.37c.43-.25.77-.6,1.02-1.06.25-.46.38-1.01.38-1.66s-.13-1.2-.38-1.66Z"/>
    <path class="cls-2" d="m336.14,35.17c-.31-.3-.46-.67-.46-1.11s.15-.81.46-1.11c.31-.3.7-.44,1.17-.44s.86.15,1.17.44c.31.3.46.67.46,1.11s-.15.81-.46,1.11-.7.45-1.17.45-.86-.15-1.17-.45Zm2.47,1.7v10.5h-2.65v-10.5h2.65Z"/>
    <path class="cls-2" d="m342.93,47.08c-.68-.31-1.22-.73-1.62-1.26-.4-.53-.61-1.12-.65-1.76h2.67c.05.41.25.74.6,1.01.35.26.78.4,1.3.4s.9-.1,1.19-.3c.28-.2.43-.46.43-.78,0-.34-.17-.6-.52-.77-.35-.17-.9-.36-1.66-.56-.78-.19-1.43-.39-1.92-.59-.5-.2-.93-.51-1.29-.93s-.54-.98-.54-1.69c0-.58.17-1.11.5-1.59s.82-.86,1.44-1.14,1.36-.42,2.21-.42c1.25,0,2.25.31,3,.94.75.62,1.16,1.47,1.23,2.53h-2.54c-.04-.42-.21-.75-.52-1-.31-.25-.72-.37-1.24-.37-.48,0-.85.09-1.11.26-.26.18-.39.42-.39.74,0,.35.18.62.53.81.35.18.9.37,1.65.56.76.19,1.38.39,1.88.59s.92.51,1.28.94.55.98.56,1.68c0,.61-.17,1.15-.5,1.63s-.82.86-1.44,1.13c-.63.27-1.36.41-2.19.41s-1.63-.15-2.31-.47Z"/>
    <path class="cls-2" d="m353.5,46.87c-.81-.45-1.44-1.08-1.91-1.91-.46-.82-.69-1.77-.69-2.84s.24-2.02.71-2.84c.47-.82,1.12-1.46,1.94-1.9.82-.45,1.74-.67,2.75-.67s1.93.22,2.75.67c.82.45,1.47,1.08,1.94,1.9.47.82.71,1.77.71,2.84s-.24,2.02-.73,2.84c-.49.82-1.14,1.46-1.97,1.91s-1.75.67-2.78.67-1.92-.22-2.73-.67Zm4.09-1.99c.42-.23.76-.59,1.01-1.05s.38-1.04.38-1.71c0-1-.26-1.77-.79-2.3s-1.17-.81-1.92-.81-1.39.27-1.9.81-.77,1.31-.77,2.3.25,1.77.75,2.3c.5.54,1.13.81,1.89.81.48,0,.93-.12,1.36-.35Z"/>
    <path class="cls-2" d="m372.51,37.9c.77.79,1.16,1.89,1.16,3.31v6.16h-2.65v-5.8c0-.84-.21-1.48-.63-1.92-.42-.45-.98-.67-1.7-.67s-1.31.23-1.74.67c-.42.45-.63,1.09-.63,1.92v5.8h-2.65v-10.5h2.65v1.31c.35-.46.81-.81,1.36-1.07.55-.26,1.15-.39,1.81-.39,1.25,0,2.26.39,3.03,1.18Z"/>
    <path class="cls-2" d="m377.9,47.08c-.68-.31-1.22-.73-1.62-1.26-.4-.53-.61-1.12-.65-1.76h2.67c.05.41.25.74.6,1.01.35.26.78.4,1.3.4s.9-.1,1.18-.3c.29-.2.43-.46.43-.78,0-.34-.17-.6-.52-.77-.35-.17-.9-.36-1.66-.56-.78-.19-1.42-.39-1.92-.59-.5-.2-.93-.51-1.29-.93s-.54-.98-.54-1.69c0-.58.17-1.11.5-1.59s.82-.86,1.44-1.14,1.36-.42,2.21-.42c1.25,0,2.25.31,3,.94.75.62,1.16,1.47,1.23,2.53h-2.54c-.04-.42-.21-.75-.52-1-.31-.25-.72-.37-1.24-.37-.48,0-.85.09-1.11.26-.26.18-.39.42-.39.74,0,.35.18.62.53.81s.9.37,1.65.56c.76.19,1.38.39,1.88.59s.92.51,1.28.94.55.98.56,1.68c0,.61-.17,1.15-.5,1.63s-.82.86-1.44,1.13c-.63.27-1.36.41-2.19.41s-1.63-.15-2.31-.47Z"/>
  </g>
  <g>
    <path class="cls-2" d="m306.01,56.06c.42-.82,1-1.45,1.73-1.9.73-.44,1.55-.66,2.45-.66.68,0,1.33.15,1.95.45.62.3,1.11.69,1.48,1.18v-4.99h2.69v14.03h-2.69v-1.56c-.33.52-.79.94-1.38,1.25-.59.32-1.28.47-2.07.47-.88,0-1.69-.23-2.43-.68s-1.31-1.1-1.73-1.92c-.42-.83-.63-1.78-.63-2.85s.21-2,.63-2.82Zm7.25,1.2c-.25-.46-.59-.82-1.02-1.06-.43-.25-.89-.37-1.38-.37s-.95.12-1.36.36-.75.59-1.01,1.05c-.26.46-.39,1.01-.39,1.64s.13,1.19.39,1.66c.26.47.6.84,1.02,1.09s.88.38,1.36.38.96-.12,1.38-.37c.43-.25.77-.6,1.02-1.06.25-.46.38-1.01.38-1.66s-.13-1.2-.38-1.66Z"/>
    <path class="cls-2" d="m328.49,59.72h-7.68c.06.76.33,1.35.8,1.78.47.43,1.04.64,1.73.64.98,0,1.69-.42,2.1-1.27h2.86c-.3,1.01-.88,1.84-1.74,2.49-.86.65-1.91.98-3.17.98-1.01,0-1.92-.22-2.72-.67s-1.43-1.08-1.88-1.91c-.45-.82-.67-1.77-.67-2.84s.22-2.04.66-2.86c.44-.82,1.06-1.45,1.86-1.9.8-.44,1.71-.66,2.75-.66s1.89.21,2.68.64c.79.43,1.4,1.04,1.84,1.83.44.79.65,1.7.65,2.72,0,.38-.03.72-.08,1.02Zm-2.67-1.78c-.01-.68-.26-1.23-.74-1.64s-1.07-.62-1.76-.62c-.66,0-1.21.2-1.66.6-.45.4-.72.95-.82,1.66h4.99Z"/>
    <path class="cls-2" d="m336.14,65.9c0,1.16-.29,2-.86,2.51-.57.51-1.4.77-2.47.77h-1.18v-2.26h.76c.4,0,.69-.08.85-.24.16-.16.25-.41.25-.77v-12.25h2.65v12.23Zm-2.49-13.92c-.31-.3-.46-.67-.46-1.11s.15-.81.46-1.11c.31-.3.7-.44,1.18-.44s.85.15,1.16.44c.3.3.45.67.45,1.11s-.15.81-.45,1.11-.69.45-1.16.45-.88-.15-1.18-.45Z"/>
    <path class="cls-2" d="m348.49,53.67v10.5h-2.67v-1.33c-.34.46-.79.81-1.34,1.07-.55.26-1.15.39-1.79.39-.82,0-1.55-.17-2.18-.52-.63-.35-1.13-.86-1.49-1.54-.36-.67-.54-1.48-.54-2.42v-6.16h2.65v5.78c0,.84.21,1.48.63,1.92s.99.67,1.71.67,1.31-.22,1.72-.67c.42-.45.63-1.09.63-1.92v-5.78h2.67Z"/>
    <path class="cls-2" d="m352.62,63.88c-.68-.31-1.22-.73-1.62-1.26-.4-.53-.61-1.12-.65-1.76h2.67c.05.41.25.74.6,1.01.35.26.78.4,1.3.4s.9-.1,1.19-.3c.28-.2.43-.46.43-.78,0-.34-.17-.6-.52-.77-.35-.17-.9-.36-1.66-.56-.78-.19-1.43-.39-1.92-.59-.5-.2-.93-.51-1.29-.93s-.54-.98-.54-1.69c0-.58.17-1.11.5-1.59s.82-.86,1.44-1.14,1.36-.42,2.21-.42c1.25,0,2.25.31,3,.94.75.62,1.16,1.47,1.23,2.53h-2.54c-.04-.42-.21-.75-.52-1-.31-.25-.72-.37-1.24-.37-.48,0-.85.09-1.11.26-.26.18-.39.42-.39.74,0,.35.18.62.53.81.35.18.9.37,1.65.56.76.19,1.38.39,1.88.59s.92.51,1.28.94.55.98.56,1.68c0,.61-.17,1.15-.5,1.63s-.82.86-1.44,1.13c-.63.27-1.36.41-2.19.41s-1.63-.15-2.31-.47Z"/>
    <path class="cls-2" d="m364.15,55.85v5.08c0,.35.08.61.25.77s.46.24.86.24h1.23v2.24h-1.67c-2.24,0-3.36-1.09-3.36-3.26v-5.06h-1.25v-2.18h1.25v-2.6h2.67v2.6h2.35v2.18h-2.35Z"/>
    <path class="cls-2" d="m368.4,51.98c-.31-.3-.46-.67-.46-1.11s.15-.81.46-1.11c.31-.3.7-.44,1.17-.44s.86.15,1.17.44c.31.3.46.67.46,1.11s-.15.81-.46,1.11-.7.45-1.17.45-.86-.15-1.17-.45Zm2.47,1.7v10.5h-2.65v-10.5h2.65Z"/>
    <path class="cls-2" d="m373.28,56.07c.44-.82,1.06-1.45,1.84-1.9.78-.45,1.68-.67,2.69-.67,1.3,0,2.38.33,3.23.98.85.65,1.42,1.56,1.72,2.74h-2.86c-.15-.45-.41-.81-.77-1.07-.36-.26-.81-.39-1.34-.39-.76,0-1.36.27-1.8.82s-.66,1.33-.66,2.34.22,1.77.66,2.32,1.04.82,1.8.82c1.08,0,1.78-.48,2.1-1.44h2.86c-.29,1.14-.87,2.04-1.72,2.71-.86.67-1.93,1.01-3.22,1.01-1.01,0-1.91-.22-2.69-.67-.78-.45-1.4-1.08-1.84-1.9s-.66-1.77-.66-2.85.22-2.04.66-2.85Z"/>
    <path class="cls-2" d="m394.21,59.72h-7.68c.06.76.33,1.35.8,1.78.47.43,1.04.64,1.73.64.99,0,1.69-.42,2.1-1.27h2.86c-.3,1.01-.88,1.84-1.74,2.49-.86.65-1.91.98-3.17.98-1.01,0-1.92-.22-2.72-.67-.8-.45-1.43-1.08-1.88-1.91-.45-.82-.67-1.77-.67-2.84s.22-2.04.66-2.86c.44-.82,1.06-1.45,1.86-1.9.8-.44,1.71-.66,2.75-.66s1.89.21,2.68.64c.79.43,1.4,1.04,1.84,1.83.43.79.65,1.7.65,2.72,0,.38-.03.72-.08,1.02Zm-2.67-1.78c-.01-.68-.26-1.23-.74-1.64-.48-.41-1.07-.62-1.76-.62-.66,0-1.21.2-1.66.6-.45.4-.72.95-.83,1.66h4.99Z"/>
  </g>
</svg>