<?xml version="1.0" encoding="UTF-8"?>
<svg width="86px" height="86px" viewBox="0 0 86 86" version="1.1" xmlns="http://www.w3.org/2000/svg" xmlns:xlink="http://www.w3.org/1999/xlink">
    <title>FWB-rs-pastille</title>
    <g id="FWB-rs-pastille" stroke="none" stroke-width="1" fill="none" fill-rule="evenodd">
        <path d="M83.229,43.48 C83.229,65.964 65.003,84.19 42.52,84.19 C20.036,84.19 1.81,65.964 1.81,43.48 C1.81,20.997 20.036,2.771 42.52,2.771 C65.003,2.771 83.229,20.997 83.229,43.48" id="Fill-1" fill="#449790"></path>
        <path d="M57.027,65.104 L46.117,49.364 C49.154,46.166 51.033,41.857 51.033,37.109 C51.033,27.282 43.037,19.286 33.21,19.286 L33.21,26.75 C38.922,26.75 43.569,31.397 43.569,37.109 C43.569,42.821 38.922,47.468 33.21,47.468 L33.21,54.932 C35.601,54.932 37.88,54.451 39.966,53.593 L47.944,65.104 L57.027,65.104" id="Fill-2" fill="#FFFFFE"></path>
    </g>
</svg>