<?xml version="1.0" encoding="UTF-8"?>
<svg width="86px" height="86px" viewBox="0 0 86 86" version="1.1" xmlns="http://www.w3.org/2000/svg" xmlns:xlink="http://www.w3.org/1999/xlink">
    <title>FWB-sg-pastille</title>
    <g id="FWB-sg-pastille" stroke="none" stroke-width="1" fill="none" fill-rule="evenodd">
        <path d="M83.229,43.48 C83.229,65.964 65.003,84.19 42.52,84.19 C20.037,84.19 1.81,65.964 1.81,43.48 C1.81,20.997 20.037,2.771 42.52,2.771 C65.003,2.771 83.229,20.997 83.229,43.48" id="Fill-1" fill="#3A4C54"></path>
        <path d="M30.882,48.899 C27.746,45.483 26.127,41.051 26.324,36.418 C26.521,31.786 28.512,27.507 31.927,24.371 C38.978,17.898 49.98,18.366 56.455,25.417 L50.957,30.465 C49.169,28.518 46.73,27.384 44.09,27.271 C41.444,27.16 38.923,28.082 36.975,29.869 C35.028,31.657 33.894,34.095 33.782,36.736 C33.669,39.377 34.592,41.904 36.38,43.851 L30.882,48.899" id="Fill-2" fill="#FFFFFE"></path>
        <path d="M41.354,67.225 C36.996,67.225 32.859,65.617 29.63,62.651 L34.678,57.154 C36.625,58.941 39.137,59.861 41.793,59.752 C44.434,59.639 46.872,58.505 48.66,56.558 C50.448,54.611 51.37,52.084 51.258,49.443 C51.146,46.803 50.011,44.364 48.064,42.576 L53.112,37.079 C56.528,40.215 58.518,44.493 58.715,49.126 C58.912,53.758 57.294,58.191 54.158,61.606 C51.021,65.021 46.743,67.011 42.111,67.209 C41.857,67.219 41.604,67.225 41.354,67.225" id="Fill-3" fill="#FFFFFE"></path>
    </g>
</svg>