<?xml version="1.0" encoding="UTF-8"?>
<svg width="22px" height="22px" viewBox="0 0 22 22" version="1.1" xmlns="http://www.w3.org/2000/svg" xmlns:xlink="http://www.w3.org/1999/xlink">
    <title>pastille MJ Copy 2</title>
    <defs>
        <polygon id="path-1" points="0 0 3.75 0 3.75 12.1875 0 12.1875"></polygon>
        <polygon id="path-3" points="0 0 5.625 0 5.625 9.375 0 9.375"></polygon>
    </defs>
    <g id="pastille-MJ-Copy-2" stroke="none" stroke-width="1" fill="none" fill-rule="evenodd">
        <g id="FWB-mj-pastille" fill-rule="nonzero">
            <path d="M22,10.9998649 C22,17.0752036 17.0752036,22 11.0001351,22 C4.92479642,22 0,17.0752036 0,10.9998649 C0,4.92479642 4.92479642,0 11.0001351,0 C17.0752036,0 22,4.92479642 22,10.9998649" id="Fill-1" fill="#AB74A5"></path>
            <polyline id="Fill-2" fill="#FFFFFE" points="15.7671305 16.9979243 13.8427148 16.3959027 15.8822388 9.87715398 11.0941672 6.53144843 6.15964333 10.0179319 8.32940714 16.2024343 6.42633783 16.8703865 3.75236738 9.24946266 11.0879524 4.06688856 18.2479028 9.06950466 15.7671305 16.9979243"></polyline>
        </g>
        <g id="FWB-mj-pastille-Copy" fill-rule="nonzero">
            <path d="M22,10.9998649 C22,17.0752036 17.0752036,22 11.0001351,22 C4.92479642,22 0,17.0752036 0,10.9998649 C0,4.92479642 4.92479642,0 11.0001351,0 C17.0752036,0 22,4.92479642 22,10.9998649" id="Fill-1" fill="#AB74A5"></path>
            <polyline id="Fill-2" fill="#FFFFFE" points="15.7671305 16.9979243 13.8427148 16.3959027 15.8822388 9.87715398 11.0941672 6.53144843 6.15964333 10.0179319 8.32940714 16.2024343 6.42633783 16.8703865 3.75236738 9.24946266 11.0879524 4.06688856 18.2479028 9.06950466 15.7671305 16.9979243"></polyline>
        </g>
        <circle id="Oval" stroke="#DADADA" stroke-width="0.5" fill="#FFFFFF" cx="11" cy="11" r="10.75"></circle>
        <g id="Group-9" transform="translate(4.000000, 5.000000)">
            <g id="Group-3">
                <mask id="mask-2" fill="white">
                    <use xlink:href="#path-1"></use>
                </mask>
                <g id="Clip-2"></g>
                <path d="M2.16966767,0 C1.75713867,0 1.47526832,0.226275222 1.45882588,0.379567892 C1.4415026,0.548981205 1.5516082,0.714584185 1.70017737,0.828308001 C2.79007606,1.668047 -0.354540052,3.3012148 0.0333252968,6.62705022 C0.30814889,8.97949184 3.05755928,12.1875 3.62423614,12.1875 C3.64596364,12.1875 3.66446139,12.1831035 3.67943575,12.1737242 C4.11721564,11.8941043 2.39075973,8.81300955 1.99526039,7.79623656 C1.11735169,5.51384647 2.44272958,4.05419543 2.95978551,3.20478404 C3.63891689,2.08776996 3.80480933,1.03054881 3.27424712,0.520257149 C2.87023295,0.12984446 2.48207398,0 2.16966767,0" id="Fill-1" fill="#D60E2A" mask="url(#mask-2)"></path>
            </g>
            <path d="M9.90178049,0.9375 C9.86657594,0.9375 9.83052647,0.938078347 9.79363209,0.939813387 C5.95211084,1.11476326 5.3894012,5.8875694 5.38038883,7.61653686 C5.38038883,7.76517196 5.39165429,8.52222779 5.22041933,8.52222779 C5.18577804,8.52222779 5.14325094,8.4907079 5.09142983,8.41667952 C4.89174958,8.12779534 4.3217174,7.28774676 4.15160898,7.06190238 C4.10260423,6.99741672 4.03585639,6.9650293 3.97108001,6.9650293 C3.83448633,6.9650293 3.70577847,7.10788094 3.76464049,7.39618677 C3.79449395,7.54250848 4.17554808,9.17286783 4.72333098,9.84317165 C4.8810474,10.0380745 5.24323188,10.3125 5.61780837,10.3125 C5.98224594,10.3125 6.35851224,10.0531115 6.57030286,9.20670111 C6.93671189,7.89790253 6.5018652,2.69364975 10.8782141,2.09882017 C11.2243453,2.05139574 11.3575593,1.63527529 11.1539362,1.39034547 C11.0097383,1.21684146 10.5701038,0.9375 9.90178049,0.9375" id="Fill-4" fill="#F9BA02"></path>
            <g id="Group-8" transform="translate(9.375000, 2.812500)">
                <mask id="mask-4" fill="white">
                    <use xlink:href="#path-3"></use>
                </mask>
                <g id="Clip-7"></g>
                <path d="M3.2385227,3.10660002 C3.09656322,3.06389018 3.09050398,2.97931345 3.1946653,2.82926703 C3.37384586,2.57216502 4.10557194,1.02309026 3.20389844,0.209917336 C3.13061041,0.143604686 3.03539369,0.0750441489 2.93209797,0.0272765617 C2.76647858,-0.0488705921 2.55815594,0.0320533204 2.56104129,0.299832795 C2.58239292,2.26420457 1.57713516,2.64100654 0.170524493,2.65533682 L0.00346242626,2.65533682 L0.00346242626,3.55814421 L1.24878174,3.64075404 L1.27157605,3.64300193 C2.61730572,3.74471879 3.42722493,4.59919663 3.42722493,5.5837709 C3.42722493,6.7675641 2.40378943,7.53296944 1.27186458,7.53296944 C0.896191331,7.53296944 0.510996409,7.45794623 0.199666581,7.27080968 C0.140805335,7.23540547 0.0614580662,7.18033225 0,7.13565551 C0,7.28879278 0.000865606566,9.06181322 0.000865606566,9.06181322 C0.430494999,9.2582223 0.91754296,9.37511239 1.54770454,9.37511239 C3.35913055,9.37511239 5.625,8.0921312 5.625,5.84986446 C5.625,4.68068251 4.61627982,3.52189705 3.2385227,3.10660002" id="Fill-6" fill="#023570" mask="url(#mask-4)"></path>
            </g>
        </g>
    </g>
</svg>