<?xml version="1.0" encoding="UTF-8"?>
<svg width="280px" height="65px" viewBox="0 0 280 65" version="1.1" xmlns="http://www.w3.org/2000/svg" xmlns:xlink="http://www.w3.org/1999/xlink">
    <title>logo fwb noir</title>
    <g id="logo-fwb-noir" stroke="none" stroke-width="1" fill="none" fill-rule="evenodd">
        <g id="Group-18-Copy-3" transform="translate(3.000000, 8.000000)">
            <path d="M10.4138594,0 C8.43324218,0 7.08231388,1.00285714 7.00192806,1.68293233 C6.9193093,2.43203008 7.44628299,3.16691729 8.16082358,3.67037594 C13.3926005,7.38947368 -1.70206949,14.6266917 0.160201918,29.3630075 C1.47986907,39.7854135 14.6765406,54 17.3962607,54 C17.4989759,54 17.5905264,53.9796992 17.6619805,53.9370677 C19.7609435,52.7007519 11.4745056,39.0464662 9.57650712,34.5417293 C5.36295058,24.4319549 11.7245948,17.9621053 14.2076233,14.2003759 C17.4654818,9.25105263 18.2626412,4.5656391 15.7170903,2.30616541 C13.776666,0.576541353 11.9143946,0 10.4138594,0" id="Fill-1" fill="#1D1D1B"></path>
            <path d="M42.8873961,5 C42.7275758,5 42.5637094,5.00424321 42.39782,5.01060803 C24.9834745,5.8316698 22.4324185,28.2315927 22.3899346,36.346738 C22.3899346,37.042625 22.4405107,40.5984377 21.6636625,40.5984377 C21.5078883,40.5984377 21.3156993,40.4499253 21.0810264,40.0998602 C20.1747036,38.7462751 17.589256,34.80433 16.818477,33.7435267 C16.5959423,33.4401369 16.2965321,33.2895029 16.001168,33.2895029 C15.3821171,33.2895029 14.799481,33.9599306 15.0665226,35.3135156 C15.2000434,35.9987945 16.9277212,43.6514297 19.4120168,46.7998939 C20.1261506,47.7121848 21.7668377,49 23.466193,49 C25.1169952,49 26.8264657,47.7821978 27.7833646,43.8105502 C29.4463051,37.6663774 27.4738392,13.2424418 47.313812,10.4504074 C48.8836926,10.2276387 49.4865591,8.27363904 48.566075,7.12372824 C47.9106094,6.31327451 45.917913,5 42.8873961,5" id="Fill-3" fill="#1D1D1B"></path>
            <path d="M53.9694408,27.5819259 C53.3143693,27.3819572 53.2847854,26.9820198 53.7686931,26.2790371 C54.5949285,25.0751019 57.9780559,17.8040755 53.8109558,13.9861166 C53.4707412,13.6748251 53.0312094,13.353226 52.5536411,13.1285189 C51.7886866,12.7698122 50.8229844,13.1511958 50.8377763,14.4087308 C50.9370936,23.6279058 46.2903121,25.396701 39.788199,25.4647316 L39.0169051,25.4647316 L39.0169051,29.7011817 L44.7730819,30.0887499 L44.8787386,30.0990575 C51.0976918,30.5752716 54.8421651,34.5870146 54.8421651,39.2069098 C54.8421651,44.7627409 50.1129714,48.3539311 44.8787386,48.3539311 C43.1438557,48.3539311 41.3603706,48.0034705 39.9234395,47.1252575 C39.6508453,46.9603349 39.2831599,46.7026433 39,46.4903054 C39,47.2077188 39.0063394,55.5321886 39.0063394,55.5321886 C40.9905722,56.4536938 43.243173,57 46.1550715,57 C54.5294213,57 65,50.980324 65,40.4541371 C65,34.9683982 60.3384265,29.532136 53.9694408,27.5819259" id="Fill-5" fill="#1D1D1B"></path>
            <path d="M91.5971544,39.1811216 L89.4445742,45.5099269 C89.3601189,45.7624521 89.3003822,45.9888541 89.269484,46.1891327 C89.2365258,46.3876698 89.2118072,46.7115987 89.1953281,47.159178 L89.0985135,47.159178 C89.0449565,46.6941832 88.9975791,46.3598049 88.9563814,46.1612679 C88.9110639,45.9627308 88.8451476,45.7467781 88.7545126,45.5099269 L86.7955617,40.6283525 L84.8407305,45.5221177 C84.7459758,45.7485197 84.6779996,45.9627308 84.634742,46.1612679 C84.5914844,46.3598049 84.5420471,46.6941832 84.49055,47.159178 L84.3937354,47.159178 C84.3751964,46.7081156 84.3545976,46.3841867 84.3257592,46.1891327 C84.2948609,45.9940787 84.2330643,45.7694183 84.1444893,45.5099269 L81.9919091,39.1811216 L80,39.1811216 L83.4523678,48.8171369 L85.1476534,48.8171369 L86.5689743,44.9665622 C86.6122319,44.8446534 86.6493098,44.6757227 86.6760883,44.4580286 C86.7069866,44.2403344 86.7296454,43.9756183 86.7461244,43.6638802 L86.8244001,43.656914 C86.8429391,43.968652 86.8655978,44.2316266 86.8944362,44.4510623 C86.9232746,44.667015 86.9624124,44.8411703 87.0118496,44.9665622 L88.4414101,48.8171369 L90.1181567,48.8171369 L93.5890635,39.1811216 L91.5971544,39.1811216 Z M101.663814,44.5729711 C101.606137,44.5555556 101.55052,44.5398816 101.496963,44.5329154 C101.443406,44.5242076 101.37955,44.5189829 101.303334,44.5189829 L99.1425143,44.5189829 C99.0745381,44.5189829 99.0168613,44.522466 98.9715439,44.5276907 C98.9241665,44.5363985 98.8664897,44.5503309 98.7882141,44.5729711 L98.7325972,44.5050505 C98.7820344,44.471961 98.8170525,44.4423546 98.8479507,44.4092651 C98.8726694,44.3796587 98.897388,44.3343783 98.9200467,44.2803901 L100.001487,41.6401951 C100.050924,41.5269941 100.090062,41.3667712 100.1189,41.1612679 C100.147738,40.9557645 100.168337,40.7206548 100.178637,40.4576803 L100.267212,40.4576803 C100.277511,40.7206548 100.29811,40.9557645 100.326948,41.1612679 C100.357847,41.3667712 100.396984,41.5269941 100.444362,41.6401951 L101.511382,44.2803901 C101.534041,44.3343783 101.55876,44.3796587 101.587598,44.4092651 C101.618496,44.4423546 101.659694,44.471961 101.713251,44.5050505 L101.663814,44.5729711 Z M101.039669,39.1811216 L99.4061797,39.1811216 L95.2637503,48.8171369 L97.1444256,48.8171369 L98.3556381,45.9244166 L102.106689,45.9244166 L103.311722,48.8171369 L105.182098,48.8171369 L101.039669,39.1811216 Z M110.772627,47.3298502 C110.673752,47.3298502 110.595477,47.3350749 110.54192,47.354232 C110.488363,47.369906 110.434806,47.3960293 110.381249,47.4378265 L110.317392,47.3838384 C110.36477,47.3368164 110.399788,47.2950192 110.418327,47.2549634 C110.434806,47.2149077 110.445105,47.1469871 110.445105,47.0494601 L110.445105,39.1671891 L108.56649,39.1671891 L108.56649,48.8171369 L114.354767,48.8171369 L114.636972,47.3298502 L110.772627,47.3298502 Z M120.262519,47.3298502 C120.161584,47.3298502 120.083309,47.3350749 120.029752,47.354232 C119.978254,47.369906 119.924697,47.3960293 119.87114,47.4378265 L119.803164,47.3838384 C119.854661,47.3368164 119.88556,47.2950192 119.906158,47.2549634 C119.924697,47.2149077 119.934997,47.1469871 119.934997,47.0494601 L119.934997,39.1671891 L118.054322,39.1671891 L118.054322,48.8171369 L123.844659,48.8171369 L124.124804,47.3298502 L120.262519,47.3298502 Z M135.099873,46.5217694 C134.399512,47.159178 133.478743,47.4778823 132.333447,47.4778823 C131.18815,47.4778823 130.265322,47.159178 129.567021,46.5217694 C128.868719,45.8826193 128.520599,45.0397074 128.520599,43.9895507 C128.520599,42.942877 128.872839,42.0999652 129.57526,41.460815 C130.279741,40.8181818 131.204629,40.4994775 132.349926,40.4994775 C133.472563,40.4994775 134.389212,40.8234065 135.093693,41.4730059 C135.796114,42.1208638 136.150414,42.9620341 136.150414,43.9895507 C136.150414,45.0397074 135.800234,45.8826193 135.099873,46.5217694 L135.099873,46.5217694 Z M136.438798,40.3949843 C135.367658,39.4632532 133.983415,39 132.286069,39 C130.642281,39 129.288936,39.4702194 128.226035,40.4106583 C127.161075,41.3528387 126.631684,42.5458029 126.631684,43.9895507 C126.631684,45.450714 127.163134,46.6506444 128.230155,47.584117 C129.295116,48.5193312 130.66288,48.9878091 132.333447,48.9878091 C133.997834,48.9878091 135.367658,48.5193312 136.438798,47.584117 C137.507879,46.6506444 138.043449,45.4541971 138.043449,44.0034831 C138.043449,42.5266458 137.507879,41.3232323 136.438798,40.3949843 L136.438798,40.3949843 Z M151.187577,39.1811216 L149.378998,39.1811216 L149.378998,45.1024033 C149.378998,45.3793103 149.405776,45.6649251 149.459333,45.9627308 C149.51289,46.2587948 149.599405,46.6158133 149.722999,47.0390108 L149.642663,47.0494601 C149.492291,46.6854754 149.350159,46.3754789 149.205967,46.1212121 C149.065895,45.8669453 148.896984,45.6213863 148.703355,45.3810519 L143.668996,39.1811216 L141.992249,39.1811216 L141.992249,48.8171369 L143.804948,48.8171369 L143.804948,42.8836642 C143.804948,42.6293974 143.782289,42.3751306 143.736972,42.1208638 C143.693714,41.8683386 143.598959,41.4799721 143.460947,40.9592476 L143.541283,40.9453152 C143.722553,41.3807036 143.870864,41.6994079 143.988278,41.9049112 C144.101571,42.1086729 144.264302,42.3420411 144.47853,42.6050157 L149.504651,48.8171369 L151.187577,48.8171369 L151.187577,39.1811216 Z M155.838798,48.8171369 L157.711234,48.8171369 L157.711234,39.1671891 L155.838798,39.1671891 L155.838798,48.8171369 Z M164.519155,47.3298502 C164.416161,47.3298502 164.337885,47.3350749 164.286388,47.354232 C164.230771,47.369906 164.177214,47.3960293 164.117477,47.4378265 L164.0598,47.3925462 C164.105118,47.338558 164.136016,47.2915361 164.156615,47.2445141 C164.179274,47.1974922 164.187513,47.1330547 164.187513,47.0494601 L164.187513,44.9265064 C164.187513,44.8585859 164.179274,44.799373 164.156615,44.7453849 C164.136016,44.6948798 164.105118,44.6426332 164.0598,44.5938697 L164.125717,44.5398816 C164.183394,44.5799373 164.23901,44.6078022 164.286388,44.619993 C164.335825,44.6339255 164.412041,44.6426332 164.519155,44.6461163 L168.364961,44.6461163 L168.364961,43.1884361 L164.519155,43.1884361 C164.42234,43.1884361 164.350244,43.1936607 164.296687,43.2093347 C164.24725,43.2215256 164.187513,43.251132 164.117477,43.2964124 L164.051561,43.2424242 C164.107178,43.1745037 164.144256,43.1170324 164.160735,43.071752 C164.181334,43.0264716 164.187513,42.974225 164.187513,42.908046 L164.187513,40.9453152 C164.187513,40.8791362 164.179274,40.8181818 164.156615,40.7676768 C164.136016,40.7154302 164.105118,40.661442 164.0598,40.6074538 L164.117477,40.5534657 C164.197813,40.5987461 164.265789,40.6283525 164.323466,40.645768 C164.377023,40.6597005 164.444999,40.6701498 164.519155,40.6701498 L168.91907,40.6701498 L168.727501,39.1811216 L162.360395,39.1811216 L162.360395,48.8171369 L168.708962,48.8171369 L168.91907,47.3298502 L164.519155,47.3298502 Z M172.451773,46.0445838 L176.394394,46.0445838 L176.394394,44.619993 L172.451773,44.619993 L172.451773,46.0445838 Z M185.783351,47.0407524 C185.420811,47.3159178 184.922319,47.451759 184.281695,47.451759 L182.761499,47.451759 C182.664685,47.451759 182.592589,47.4604667 182.543151,47.4761407 C182.495774,47.4918147 182.438097,47.5214211 182.368061,47.5649599 L182.304205,47.5057471 C182.361882,47.4413096 182.398959,47.3925462 182.411319,47.3577151 C182.427798,47.3194009 182.433977,47.2584465 182.433977,47.174852 L182.433977,44.6879136 C182.433977,44.619993 182.427798,44.5660049 182.411319,44.5259491 C182.398959,44.4841519 182.361882,44.4266806 182.304205,44.3570185 L182.368061,44.2943225 C182.438097,44.3396029 182.495774,44.3692093 182.543151,44.3866249 C182.592589,44.4022989 182.664685,44.4092651 182.761499,44.4092651 L184.215778,44.4092651 C184.623636,44.4092651 184.949097,44.4423546 185.194224,44.5085336 C185.44141,44.5729711 185.657698,44.6879136 185.838968,44.8498781 C185.98728,44.9857193 186.106753,45.1459422 186.191208,45.3288053 C186.275664,45.51341 186.318921,45.7032393 186.318921,45.8982933 C186.318921,46.3859282 186.139711,46.7655869 185.783351,47.0407524 L185.783351,47.0407524 Z M185.43729,42.7896203 C185.153026,43.0229885 184.747229,43.1396726 184.215778,43.1396726 L182.74708,43.1396726 C182.648206,43.1396726 182.57611,43.1466388 182.528732,43.1640543 C182.479295,43.1797283 182.421618,43.2110763 182.353642,43.2546151 L182.289786,43.2023685 C182.293905,43.1919192 182.304205,43.1814699 182.314504,43.1675374 C182.39278,43.0630442 182.433977,42.9620341 182.433977,42.861024 L182.433977,40.7920585 C182.427798,40.727621 182.415439,40.6753744 182.3969,40.6318356 C182.376301,40.5900383 182.343343,40.5308255 182.289786,40.4576803 L182.353642,40.4054336 C182.415439,40.450714 182.471055,40.4785789 182.520493,40.4907698 C182.56993,40.5064437 182.644086,40.5116684 182.74708,40.5116684 L183.99949,40.5116684 C184.656594,40.5116684 185.134487,40.6161616 185.429051,40.8234065 C185.721554,41.0271682 185.867806,41.3476141 185.867806,41.7812609 C185.867806,42.2218739 185.727734,42.5579937 185.43729,42.7896203 L185.43729,42.7896203 Z M187.476577,44.4597701 C187.095498,44.066179 186.568167,43.8136538 185.902824,43.7109021 L185.902824,43.6290491 C186.463113,43.4897248 186.88333,43.2615813 187.155235,42.9481017 C187.42714,42.6328805 187.567212,42.2201324 187.567212,41.7098572 C187.567212,40.887844 187.254109,40.2626263 186.634084,39.830721 C186.009938,39.3970742 185.095349,39.1811216 183.884137,39.1811216 L180.705734,39.1811216 L180.705734,48.8171369 L184.125143,48.8171369 C185.356955,48.8171369 186.318921,48.5489377 187.008983,48.0107976 C187.701104,47.4761407 188.045105,46.784744 188.045105,45.938349 C188.045105,45.3497039 187.855596,44.8568443 187.476577,44.4597701 L187.476577,44.4597701 Z M196.612168,42.9481017 C196.315545,43.169279 195.85619,43.2842215 195.229985,43.2842215 L194.121767,43.2842215 C194.020832,43.2842215 193.942557,43.2911877 193.89312,43.3068617 C193.841622,43.3225357 193.788065,43.3521421 193.726269,43.3921978 L193.664472,43.3382097 C193.726269,43.2789969 193.771586,43.2250087 193.794245,43.1745037 C193.818964,43.1257402 193.831323,43.0682689 193.831323,43.0038314 L193.831323,40.7972832 C193.810724,40.7154302 193.788065,40.6527342 193.763347,40.6022292 C193.738628,40.5569488 193.70773,40.5099269 193.664472,40.4576803 L193.726269,40.4054336 C193.796305,40.450714 193.856042,40.4785789 193.905479,40.4907698 C193.950796,40.5064437 194.022892,40.5116684 194.121767,40.5116684 L195.229985,40.5116684 C195.850011,40.5116684 196.311425,40.6248694 196.605989,40.8495298 C196.904672,41.0724486 197.050924,41.4190178 197.050924,41.8909788 C197.050924,42.3716475 196.906732,42.7216998 196.612168,42.9481017 L196.612168,42.9481017 Z M196.455617,44.994427 C196.350563,44.8638105 196.22079,44.7401602 196.062179,44.6234761 C195.909747,44.5085336 195.728477,44.3988157 195.518369,44.2943225 L195.549267,44.2473006 C195.691399,44.2786486 195.814993,44.3030303 195.928286,44.3187043 C196.04158,44.3343783 196.148694,44.343086 196.249628,44.343086 C196.956169,44.343086 197.549416,44.1062348 198.037609,43.6325322 C198.519622,43.1588297 198.764748,42.5788924 198.764748,41.8909788 C198.764748,41.0132358 198.447526,40.3409962 197.815141,39.8777429 C197.184816,39.4144897 196.259928,39.1811216 195.046655,39.1811216 L192.033043,39.1811216 L192.033043,48.8171369 L193.831323,48.8171369 L193.831323,45.4193661 C193.831323,45.0606061 193.818964,44.7924068 193.800425,44.619993 C193.777766,44.4475792 193.736568,44.2490421 193.680951,44.0243817 L193.759227,44.0034831 C193.847802,44.2072449 193.942557,44.3814002 194.035252,44.5276907 C194.132066,44.6757227 194.286558,44.8812261 194.506965,45.1442006 L197.427883,48.8171369 L199.469229,48.8171369 L196.455617,44.994427 Z M211.752325,39.1811216 L209.87783,39.1811216 L209.87783,44.7575758 C209.87783,45.6805991 209.659482,46.3685127 209.220726,46.8230582 C208.779911,47.2793452 208.118688,47.5057471 207.228817,47.5057471 C206.341007,47.5057471 205.675664,47.2793452 205.236908,46.8230582 C204.796093,46.3685127 204.577745,45.6805991 204.577745,44.7575758 L204.577745,39.1811216 L202.709429,39.1811216 L202.709429,44.5990944 C202.709429,45.3967259 202.802124,46.0463253 202.987513,46.5478927 C203.174963,47.0494601 203.465407,47.4743992 203.856785,47.8174852 C204.285241,48.1988854 204.789913,48.4897248 205.370801,48.6934866 C205.953748,48.8972483 206.571714,49 207.228817,49 C207.885921,49 208.508006,48.8972483 209.088894,48.6934866 C209.667721,48.4897248 210.174453,48.1988854 210.602909,47.8174852 C210.992228,47.4743992 211.280612,47.0494601 211.470121,46.5478927 C211.65963,46.0463253 211.752325,45.3967259 211.752325,44.5990944 L211.752325,39.1811216 Z M220.638671,44.1323581 C220.585114,44.0470219 220.539796,43.9912922 220.504778,43.9651689 C220.47182,43.9407872 220.422383,43.9216301 220.366766,43.9076977 L220.366766,43.8537095 C220.422383,43.8415186 220.47182,43.82062 220.504778,43.7962382 C220.539796,43.7718565 220.585114,43.7161268 220.638671,43.6290491 L223.631684,39.1811216 L221.573859,39.1811216 L219.868274,41.8909788 C219.726141,42.1086729 219.635506,42.2863114 219.586069,42.420411 C219.536632,42.5562522 219.499554,42.7739464 219.472776,43.071752 L219.39244,43.071752 C219.365661,42.7913619 219.326524,42.5806339 219.277086,42.4378265 C219.227649,42.2950192 219.128775,42.112156 218.992822,41.8909788 L217.281058,39.1811216 L215.227352,39.1811216 L218.203886,43.6290491 C218.253323,43.7021944 218.296581,43.7526994 218.337779,43.7857889 C218.376917,43.8188784 218.426354,43.8415186 218.48609,43.8537095 L218.48609,43.9076977 C218.426354,43.9216301 218.376917,43.9442703 218.337779,43.9756183 C218.296581,44.0069662 218.253323,44.0592128 218.203886,44.1323581 L215.114058,48.8171369 L217.186303,48.8171369 L218.992822,45.8826193 C219.153493,45.6213863 219.254428,45.4193661 219.299745,45.2800418 C219.345063,45.138976 219.375961,44.9456635 219.39244,44.701846 L219.472776,44.701846 C219.499554,44.978753 219.536632,45.1842564 219.584009,45.3235806 C219.627267,45.4611634 219.722022,45.6475096 219.868274,45.8826193 L221.674793,48.8171369 L223.744978,48.8171369 L220.638671,44.1323581 Z M229.44468,47.3298502 C229.343746,47.3298502 229.26753,47.3350749 229.211913,47.354232 C229.158356,47.369906 229.102739,47.3960293 229.043003,47.4378265 L228.989446,47.3925462 C229.030643,47.338558 229.063602,47.2915361 229.0842,47.2445141 C229.104799,47.1974922 229.117159,47.1330547 229.117159,47.0494601 L229.117159,44.9265064 C229.117159,44.8585859 229.104799,44.799373 229.0842,44.7453849 C229.063602,44.6948798 229.030643,44.6426332 228.989446,44.5938697 L229.053302,44.5398816 C229.110979,44.5799373 229.162476,44.6078022 229.211913,44.619993 C229.26341,44.6339255 229.337566,44.6426332 229.44468,44.6461163 L233.292546,44.6461163 L233.292546,43.1884361 L229.44468,43.1884361 C229.345806,43.1884361 229.27577,43.1936607 229.226333,43.2093347 C229.172776,43.2215256 229.115099,43.251132 229.043003,43.2964124 L228.981206,43.2424242 C229.034763,43.1745037 229.069781,43.1170324 229.09038,43.071752 C229.104799,43.0264716 229.117159,42.974225 229.117159,42.908046 L229.117159,40.9453152 C229.117159,40.8791362 229.104799,40.8181818 229.0842,40.7676768 C229.063602,40.7154302 229.030643,40.661442 228.989446,40.6074538 L229.043003,40.5534657 C229.123338,40.5987461 229.193374,40.6283525 229.246931,40.645768 C229.306668,40.6597005 229.370525,40.6701498 229.44468,40.6701498 L233.844595,40.6701498 L233.653026,39.1811216 L227.285921,39.1811216 L227.285921,48.8171369 L233.636547,48.8171369 L233.844595,47.3298502 L229.44468,47.3298502 Z M240.119006,47.3298502 C240.018072,47.3298502 239.937736,47.3350749 239.886239,47.354232 C239.832682,47.369906 239.781185,47.3960293 239.725568,47.4378265 L239.661712,47.3838384 C239.709089,47.3368164 239.742047,47.2950192 239.758526,47.2549634 C239.781185,47.2149077 239.789425,47.1469871 239.789425,47.0494601 L239.789425,39.1671891 L237.910809,39.1671891 L237.910809,48.8171369 L243.701147,48.8171369 L243.981291,47.3298502 L240.119006,47.3298502 Z M249.606838,47.3298502 C249.505904,47.3298502 249.427628,47.3350749 249.372011,47.354232 C249.320514,47.369906 249.269017,47.3960293 249.2134,47.4378265 L249.147484,47.3838384 C249.196921,47.3368164 249.229879,47.2950192 249.250478,47.2549634 C249.269017,47.2149077 249.277256,47.1469871 249.277256,47.0494601 L249.277256,39.1671891 L247.396581,39.1671891 L247.396581,48.8171369 L253.186919,48.8171369 L253.469123,47.3298502 L249.606838,47.3298502 Z M259.022574,47.3298502 C258.923699,47.3298502 258.841304,47.3350749 258.789807,47.354232 C258.73625,47.369906 258.678573,47.3960293 258.620896,47.4378265 L258.567339,47.3925462 C258.610597,47.338558 258.639435,47.2915361 258.662094,47.2445141 C258.682693,47.1974922 258.692992,47.1330547 258.692992,47.0494601 L258.692992,44.9265064 C258.692992,44.8585859 258.682693,44.799373 258.662094,44.7453849 C258.639435,44.6948798 258.610597,44.6426332 258.567339,44.5938697 L258.629136,44.5398816 C258.690932,44.5799373 258.742429,44.6078022 258.789807,44.619993 C258.837184,44.6339255 258.91546,44.6426332 259.022574,44.6461163 L262.86838,44.6461163 L262.86838,43.1884361 L259.022574,43.1884361 C258.925759,43.1884361 258.853663,43.1936607 258.802166,43.2093347 C258.752729,43.2215256 258.690932,43.251132 258.620896,43.2964124 L258.5591,43.2424242 C258.612657,43.1745037 258.647675,43.1170324 258.664154,43.071752 C258.682693,43.0264716 258.692992,42.974225 258.692992,42.908046 L258.692992,40.9453152 C258.692992,40.8791362 258.682693,40.8181818 258.662094,40.7676768 C258.639435,40.7154302 258.610597,40.661442 258.567339,40.6074538 L258.620896,40.5534657 C258.701232,40.5987461 258.771268,40.6283525 258.828945,40.645768 C258.880442,40.6597005 258.950478,40.6701498 259.022574,40.6701498 L263.424549,40.6701498 L263.23092,39.1811216 L256.865874,39.1811216 L256.865874,48.8171369 L263.2165,48.8171369 L263.424549,47.3298502 L259.022574,47.3298502 Z M273.353196,44.5015674 C272.92062,44.0487635 272.090486,43.543713 270.850435,42.9916405 L270.574411,42.861024 C269.925547,42.5771508 269.488851,42.3368164 269.262264,42.143504 C269.043916,41.94845 268.930622,41.7063741 268.930622,41.4155347 C268.930622,41.0619993 269.054215,40.7955416 269.297282,40.6179032 C269.542408,40.4402647 269.907008,40.3497039 270.393141,40.3497039 C270.792759,40.3497039 271.147059,40.4106583 271.451922,40.5377917 C271.758845,40.6597005 272.049289,40.8634622 272.319134,41.1438523 L273.581843,40.138976 L273.452071,40.0309997 C273.056573,39.6966214 272.597218,39.440613 272.076067,39.2647161 C271.554916,39.0870777 270.990508,39 270.393141,39 C269.398216,39 268.60928,39.2194357 268.026333,39.6600488 C267.449565,40.1006618 267.157061,40.7032393 267.157061,41.4642982 C267.157061,41.7760362 267.206498,42.0581679 267.309492,42.3141762 C267.412487,42.5667015 267.564918,42.7965866 267.775027,43.0038314 C267.999554,43.2267503 268.302357,43.4514107 268.683436,43.6760711 C269.062455,43.902473 269.546528,44.1462905 270.127416,44.4092651 L270.40962,44.5329154 C271.136759,44.8585859 271.614653,45.1494253 271.85154,45.4071752 C272.084307,45.6666667 272.19966,45.9627308 272.19966,46.297109 C272.19966,46.7098572 272.045169,47.0355277 271.736186,47.2758621 C271.429263,47.5144549 271.011106,47.6363636 270.475536,47.6363636 C270.028541,47.6363636 269.618624,47.549286 269.241665,47.3786137 C268.870886,47.2061999 268.452729,46.9118774 267.991315,46.4939046 L266.751264,47.5649599 L266.872797,47.6642285 C267.439265,48.137931 268.003674,48.4810171 268.572202,48.6882619 C269.136611,48.8955068 269.781355,49 270.506434,49 C271.579635,49 272.430367,48.7561825 273.058632,48.2702891 C273.686897,47.7843957 274,47.1173807 274,46.2692442 C274,45.5464995 273.781652,44.9561129 273.353196,44.5015674 L273.353196,44.5015674 Z" id="Fill-7" fill="#0B1213"></path>
            <path d="M89.6864483,8.73653774 L78,8.73653774 L78,30.6144949 L81.4236996,30.6144949 L81.4236996,21.7783703 C81.4236996,21.5954187 81.4051037,21.453849 81.3720445,21.3558393 C81.3389852,21.2578295 81.2769991,21.1445738 81.1902185,21.0095381 L81.305926,20.8853924 C81.4319644,20.9899362 81.5414732,21.059632 81.6282537,21.0923019 C81.7171005,21.1315058 81.8493375,21.1489298 82.0228986,21.1489298 L88.9694756,21.1489298 L88.9694756,17.8340218 L81.9629787,17.8340218 C81.7501598,17.8340218 81.6034593,17.8492677 81.5270098,17.8775817 C81.448494,17.9102516 81.3493162,17.9734134 81.2336088,18.0648892 L81.1158352,17.9581675 C81.2439398,17.8013519 81.3245218,17.6728502 81.3658459,17.5704844 C81.4030375,17.4659407 81.4236996,17.343973 81.4236996,17.2024033 L81.4236996,12.77454 C81.3844417,12.5589185 81.3451838,12.4064589 81.305926,12.3149831 C81.2687343,12.2213293 81.2026158,12.1233196 81.1158352,12.0209538 L81.2480723,11.8989861 C81.3741107,11.9991739 81.4815533,12.0666917 81.5683338,12.0971836 C81.6571806,12.1276756 81.7894176,12.1429215 81.9629787,12.1429215 L90.2277936,12.1429215 L89.6864483,8.73653774 Z M100.416244,27.2386031 C100.230286,27.2386031 100.089784,27.256027 99.9926724,27.290875 C99.8934947,27.3279009 99.7922507,27.3932407 99.6848081,27.4847165 L99.5814979,27.3758167 C99.6600136,27.262561 99.7199335,27.1536613 99.7571252,27.0447615 C99.7963831,26.9358618 99.8170451,26.7899362 99.8170451,26.6069846 L99.8170451,21.7783703 C99.8170451,21.6280886 99.7963831,21.488697 99.7571252,21.3710852 C99.7199335,21.2534735 99.6600136,21.1380398 99.5814979,21.0247841 L99.6992715,20.9006384 C99.8067141,20.9921142 99.9038257,21.057454 99.9926724,21.0879459 C100.079453,21.1184379 100.222021,21.1380398 100.416244,21.1489298 L107.420675,21.1489298 L107.420675,17.8340218 L100.416244,17.8340218 C100.240617,17.8340218 100.106314,17.8492677 100.013334,17.8775817 C99.9203553,17.9102516 99.8108465,17.9777694 99.6848081,18.0801352 L99.5670345,17.9581675 C99.664146,17.8013519 99.7323308,17.6728502 99.76539,17.5704844 C99.7984493,17.4659407 99.8170451,17.343973 99.8170451,17.2024033 L99.8170451,12.7440481 C99.8170451,12.5915884 99.7963831,12.4543748 99.7571252,12.336763 C99.7199335,12.2191513 99.6600136,12.0971836 99.5814979,11.9752159 L99.6848081,11.8510702 C99.8294423,11.955614 99.957547,12.0231318 100.058791,12.0579797 C100.160035,12.0950056 100.279875,12.1124296 100.416244,12.1124296 L108.431048,12.1124296 L108.079794,8.73653774 L96.4821923,8.73653774 L96.4821923,30.6144949 L108.052933,30.6144949 L108.431048,27.2386031 L100.416244,27.2386031 Z M101.189004,2 L99.7571252,6.23837777 L102.271695,6.23837777 L104.966025,2 L101.189004,2 Z M126.685958,25.180398 C125.260278,26.6135186 123.448217,27.3300789 121.255975,27.3300789 L119.619542,27.3300789 C119.423252,27.3300789 119.28275,27.3431468 119.19597,27.3758167 C119.107123,27.4063087 119.010012,27.4738265 118.902569,27.5761923 L118.770332,27.4542246 C118.875708,27.3409688 118.945959,27.2386031 118.976952,27.1449493 C119.003813,27.0534735 119.020343,26.9031919 119.020343,26.6984604 L119.020343,12.6525723 C119.020343,12.4979347 119.003813,12.369433 118.966621,12.2670672 C118.935628,12.1647015 118.867443,12.0405558 118.770332,11.8989861 L118.902569,11.7595944 C119.028607,11.8619602 119.138116,11.929478 119.224897,11.9686819 C119.313743,12.0013519 119.443914,12.0209538 119.619542,12.0209538 L121.417139,12.0209538 C123.543262,12.0209538 125.3078,12.7418701 126.712819,14.1880586 C128.117838,15.6320691 128.818281,17.4637627 128.818281,19.6809613 C128.818281,21.9134059 128.107506,23.7450995 126.685958,25.180398 L126.685958,25.180398 Z M129.068291,11.8184003 C126.997955,9.76455126 124.378009,8.73653774 121.198121,8.73653774 L115.62557,8.73653774 L115.62557,30.6144949 L121.080348,30.6144949 C124.367678,30.6144949 127.037213,29.5821254 129.091019,27.5152084 C131.140694,25.4504694 132.169663,22.8390537 132.169663,19.6809613 C132.169663,16.496733 131.134495,13.8766053 129.068291,11.8184003 L129.068291,11.8184003 Z M143.002769,27.2386031 C142.818877,27.2386031 142.676309,27.256027 142.579197,27.290875 C142.48002,27.3279009 142.378776,27.3932407 142.269267,27.4847165 L142.172155,27.3758167 C142.246539,27.262561 142.304392,27.1536613 142.34365,27.0447615 C142.382908,26.9358618 142.40357,26.7899362 142.40357,26.6069846 L142.40357,21.7783703 C142.40357,21.6280886 142.382908,21.488697 142.34365,21.3710852 C142.304392,21.2534735 142.246539,21.1380398 142.172155,21.0247841 L142.28373,20.9006384 C142.391173,20.9921142 142.492417,21.057454 142.579197,21.0879459 C142.665978,21.1184379 142.808546,21.1380398 143.002769,21.1489298 L150.009266,21.1489298 L150.009266,17.8340218 L143.002769,17.8340218 C142.827142,17.8340218 142.692839,17.8492677 142.599859,17.8775817 C142.50688,17.9102516 142.397371,17.9777694 142.269267,18.0801352 L142.153559,17.9581675 C142.250671,17.8013519 142.31679,17.6728502 142.351915,17.5704844 C142.38704,17.4659407 142.40357,17.343973 142.40357,17.2024033 L142.40357,12.7440481 C142.40357,12.5915884 142.382908,12.4543748 142.34365,12.336763 C142.304392,12.2191513 142.246539,12.0971836 142.172155,11.9752159 L142.269267,11.8510702 C142.4201,11.955614 142.542006,12.0231318 142.64325,12.0579797 C142.74656,12.0950056 142.8664,12.1124296 143.002769,12.1124296 L151.017573,12.1124296 L150.666319,8.73653774 L139.068717,8.73653774 L139.068717,30.6144949 L150.637392,30.6144949 L151.017573,27.2386031 L143.002769,27.2386031 Z M143.777596,2 L142.34365,6.23837777 L144.85822,6.23837777 L147.550484,2 L143.777596,2 Z M166.5203,17.2851671 C165.985153,17.7926399 165.146274,18.0496433 164.00573,18.0496433 L161.987049,18.0496433 C161.801091,18.0496433 161.662655,18.0670672 161.569676,18.1040931 C161.476697,18.138941 161.379585,18.2021029 161.270076,18.2935787 L161.152303,18.173789 C161.270076,18.0387533 161.350658,17.9146076 161.396115,17.8013519 C161.439505,17.6880961 161.460167,17.5617724 161.460167,17.4180248 L161.460167,12.4064589 C161.422975,12.2213293 161.379585,12.0754037 161.336195,11.9686819 C161.292804,11.8576042 161.230818,11.7487045 161.152303,11.6354487 L161.270076,11.511303 C161.398181,11.6114908 161.503557,11.6833646 161.592404,11.7116786 C161.681251,11.7421705 161.811422,11.7595944 161.987049,11.7595944 L164.00573,11.7595944 C165.13801,11.7595944 165.972756,12.0122418 166.509969,12.5218926 C167.055447,13.0293654 167.324053,13.8177995 167.324053,14.8871949 C167.324053,15.9805483 167.057513,16.7776943 166.5203,17.2851671 L166.5203,17.2851671 Z M166.243429,21.9330079 C166.047139,21.6368006 165.809526,21.3558393 165.526456,21.0923019 C165.245452,20.8309425 164.910727,20.5826511 164.530546,20.3452497 L164.588399,20.238528 C164.842542,20.3082238 165.073957,20.3626737 165.278511,20.3996996 C165.480999,20.4345475 165.679355,20.4541495 165.863247,20.4541495 C167.150492,20.4541495 168.235249,19.9183627 169.117518,18.8446113 C169.999787,17.7686819 170.439888,16.4509951 170.439888,14.8871949 C170.439888,12.8943297 169.865484,11.3697334 168.714608,10.3155839 C167.563733,9.26579046 165.883909,8.73653774 163.671005,8.73653774 L158.185234,8.73653774 L158.185234,30.6144949 L161.460167,30.6144949 L161.460167,22.9043935 C161.460167,22.0832895 161.441571,21.475629 161.402313,21.0879459 C161.363055,20.6937289 161.290738,20.242884 161.183296,19.7288772 L161.32793,19.6809613 C161.495292,20.1470522 161.662655,20.5456252 161.832084,20.8766804 C162.001512,21.2120916 162.288715,21.6760045 162.689558,22.2727751 L168.014165,30.6144949 L171.727133,30.6144949 L166.243429,21.9330079 Z M188.52537,20.9790462 C188.415861,20.9376643 188.314617,20.9071724 188.217505,20.8853924 C188.118327,20.8657905 188.000554,20.8527225 187.864184,20.8527225 L183.932199,20.8527225 C183.804094,20.8527225 183.700784,20.8614345 183.618136,20.8766804 C183.535488,20.8919264 183.425979,20.9267743 183.287543,20.9790462 L183.186299,20.8244086 C183.271014,20.7503567 183.341264,20.6784829 183.390853,20.6066091 C183.438376,20.5347353 183.481766,20.4367255 183.521024,20.3169358 L185.498381,14.3165603 C185.585162,14.0617349 185.653346,13.6980098 185.707068,13.2297409 C185.762855,12.76365 185.797981,12.2322193 185.816576,11.6354487 L185.979807,11.6354487 C185.998402,12.2322193 186.033528,12.76365 186.087249,13.2297409 C186.14097,13.6980098 186.213288,14.0617349 186.302134,14.3165603 L188.246432,20.3169358 C188.283624,20.4367255 188.331146,20.5347353 188.386934,20.6066091 C188.438589,20.6784829 188.512972,20.7503567 188.61215,20.8244086 L188.52537,20.9790462 Z M187.384825,8.73653774 L184.413624,8.73653774 L176.865782,30.6144949 L180.289482,30.6144949 L182.498253,24.0456628 L189.329123,24.0456628 L191.521365,30.6144949 L194.928535,30.6144949 L187.384825,8.73653774 Z M210.185383,8.73653774 L197.901802,8.73653774 L197.461701,12.0209538 L201.761471,12.0209538 C201.945363,12.0209538 202.089997,12.0013519 202.185042,11.9686819 C202.282154,11.929478 202.379266,11.8663162 202.476377,11.7726624 L202.608614,11.8989861 C202.499105,12.0623357 202.435053,12.1930154 202.401994,12.2910252 C202.375133,12.3868569 202.36067,12.5088246 202.36067,12.6525723 L202.36067,30.6144949 L205.722383,30.6144949 L205.722383,12.6525723 C205.722383,12.4870447 205.70792,12.354187 205.67486,12.2409313 C205.639735,12.1363875 205.577749,12.0144198 205.490968,11.8815621 L205.610808,11.7595944 C205.73478,11.8619602 205.842223,11.929478 205.93107,11.9686819 C206.01785,12.0013519 206.152154,12.0209538 206.325715,12.0209538 L210.639948,12.0209538 L210.185383,8.73653774 Z M216.853023,30.6123169 L220.258126,30.6123169 L220.258126,8.70386782 L216.853023,8.70386782 L216.853023,30.6123169 Z M242.899587,25.4025535 C241.624739,26.853098 239.944915,27.5761923 237.860116,27.5761923 C235.77325,27.5761923 234.093426,26.853098 232.820645,25.4025535 C231.54993,23.954187 230.909407,22.0375516 230.909407,19.6548254 C230.909407,17.2786331 231.554062,15.3641757 232.833042,13.9114532 C234.116155,12.4543748 235.802177,11.7269245 237.886977,11.7269245 C239.936651,11.7269245 241.599945,12.4652647 242.883057,13.9397672 C244.164103,15.4142696 244.804627,17.322193 244.804627,19.6548254 C244.804627,22.0375516 244.168236,23.954187 242.899587,25.4025535 L242.899587,25.4025535 Z M245.333575,11.4873451 C243.385145,9.37686819 240.86231,8.32054074 237.769203,8.32054074 C234.77734,8.32054074 232.310293,9.38993616 230.376326,11.526549 C228.440293,13.6653398 227.477442,16.3747653 227.477442,19.6548254 C227.477442,22.9719114 228.444426,25.6922268 230.384591,27.8157717 C232.324756,29.9393166 234.816598,31 237.860116,31 C240.891237,31 243.385145,29.9393166 245.333575,27.8157717 C247.282005,25.6922268 248.259319,22.9828014 248.259319,19.6809613 C248.259319,16.3355614 247.282005,13.6 245.333575,11.4873451 L245.333575,11.4873451 Z M272,8.73653774 L268.710604,8.73653774 L268.710604,22.1791213 C268.710604,22.8063838 268.760193,23.4576042 268.857304,24.1327826 C268.954416,24.805783 269.11558,25.618175 269.33873,26.5743147 L269.189963,26.6069846 C268.921356,25.7728126 268.654816,25.0693203 268.398607,24.4921517 C268.138265,23.9171611 267.830401,23.3574164 267.481212,22.8129178 L258.3114,8.73653774 L255.255485,8.73653774 L255.255485,30.6144949 L258.559345,30.6144949 L258.559345,17.1370635 C258.559345,16.5642508 258.518021,15.9892602 258.433306,15.4120916 C258.350658,14.837101 258.185362,13.9571911 257.931219,12.77454 L258.075853,12.7440481 C258.408512,13.7328577 258.677118,14.4559519 258.889937,14.9198648 C259.098624,15.3815997 259.398223,15.9108524 259.788736,16.507623 L268.944085,30.6144949 L272,30.6144949 L272,8.73653774 Z" id="Fill-9" fill="#0B1213"></path>
        </g>
    </g>
</svg>