<?xml version="1.0" encoding="utf-8"?>
<!-- Generator: Adobe Illustrator 27.3.1, SVG Export Plug-In . SVG Version: 6.00 Build 0)  -->
<svg version="1.1" id="Calque_1" xmlns="http://www.w3.org/2000/svg" xmlns:xlink="http://www.w3.org/1999/xlink" x="0px" y="0px"
	 viewBox="0 0 212.6 66" style="enable-background:new 0 0 212.6 66;" xml:space="preserve">
<style type="text/css">
	.st0{fill:#D70D2A;}
	.st1{fill:#FABB03;}
	.st2{fill:#013571;}
	.st3{fill:#071216;}
</style>
<path class="st0" d="M18.31,9.84c-1.4,0-2.36,0.77-2.42,1.29c-0.06,0.58,0.32,1.14,0.82,1.53c3.71,2.86-7,8.44-5.68,19.78
	c0.94,8.03,10.3,18.97,12.23,18.97c0.07,0,0.14-0.02,0.19-0.05c1.49-0.95-4.39-11.47-5.74-14.93c-2.99-7.79,1.52-12.77,3.28-15.66
	c2.31-3.81,2.88-7.42,1.07-9.16C20.7,10.28,19.38,9.84,18.31,9.84"/>
<path class="st1" d="M44.83,13.01c-0.12,0-0.25,0-0.38,0.01C30.8,13.63,28.8,30.13,28.77,36.11c0,0.51,0.04,3.13-0.57,3.13
	c-0.12,0-0.27-0.11-0.46-0.37c-0.71-1-2.73-3.9-3.34-4.69c-0.17-0.22-0.41-0.33-0.64-0.33c-0.48,0-0.94,0.49-0.73,1.49
	c0.11,0.51,1.46,6.14,3.4,8.46c0.56,0.67,1.85,1.62,3.18,1.62c1.29,0,2.63-0.9,3.38-3.82c1.3-4.53-0.24-22.52,15.3-24.58
	c1.23-0.16,1.7-1.6,0.98-2.45C48.76,13.98,47.2,13.01,44.83,13.01"/>
<path class="st2" d="M53.15,29.15C52.66,29,52.63,28.7,53,28.17c0.62-0.92,3.16-6.43,0.03-9.32c-0.25-0.24-0.58-0.48-0.94-0.65
	c-0.57-0.27-1.3,0.02-1.29,0.97c0.07,6.99-3.41,8.33-8.29,8.38h-0.58v3.21l4.32,0.29l0.08,0.01c4.66,0.36,7.47,3.4,7.47,6.91
	c0,4.21-3.55,6.94-7.47,6.94c-1.3,0-2.64-0.27-3.72-0.93c-0.2-0.13-0.48-0.32-0.69-0.48c0,0.55,0,6.86,0,6.86
	c1.49,0.7,3.18,1.11,5.36,1.11c6.28,0,14.13-4.57,14.13-12.55C61.42,34.76,57.92,30.63,53.15,29.15"/>
<path class="st3" d="M201.26,44.1c-0.28-0.34-0.81-0.73-1.6-1.14l-0.17-0.1c-0.42-0.22-0.7-0.4-0.84-0.55
	c-0.14-0.15-0.21-0.33-0.21-0.55c0-0.27,0.08-0.47,0.23-0.6c0.16-0.14,0.39-0.2,0.7-0.2c0.26,0,0.48,0.05,0.68,0.14
	c0.2,0.09,0.38,0.25,0.56,0.46l0.81-0.76l-0.08-0.08c-0.25-0.25-0.55-0.45-0.88-0.58c-0.33-0.13-0.69-0.2-1.08-0.2
	c-0.64,0-1.14,0.17-1.52,0.5c-0.37,0.33-0.56,0.79-0.56,1.37c0,0.24,0.03,0.45,0.1,0.64c0.06,0.19,0.17,0.37,0.3,0.52
	c0.14,0.17,0.34,0.34,0.58,0.51c0.24,0.17,0.55,0.36,0.93,0.56l0.18,0.09c0.47,0.25,0.78,0.47,0.92,0.66
	c0.15,0.2,0.22,0.42,0.22,0.67c0,0.31-0.1,0.56-0.3,0.74c-0.2,0.18-0.47,0.27-0.81,0.27c-0.28,0-0.55-0.06-0.79-0.19
	c-0.24-0.13-0.51-0.35-0.8-0.67l-0.79,0.81l0.08,0.07c0.36,0.36,0.72,0.62,1.09,0.78c0.36,0.16,0.78,0.24,1.24,0.24
	c0.69,0,1.24-0.18,1.64-0.55c0.4-0.37,0.6-0.87,0.6-1.51C201.67,44.9,201.54,44.45,201.26,44.1 M192.08,46.25
	c-0.06,0-0.11,0.01-0.15,0.02c-0.03,0.01-0.07,0.03-0.11,0.06l-0.04-0.04c0.03-0.04,0.05-0.08,0.06-0.11
	c0.01-0.04,0.02-0.09,0.02-0.15v-1.61c0-0.05-0.01-0.1-0.02-0.14c-0.01-0.04-0.03-0.08-0.06-0.12l0.04-0.04
	c0.04,0.03,0.07,0.05,0.1,0.06c0.03,0.01,0.08,0.02,0.15,0.02h2.46v-1.11h-2.46c-0.06,0-0.11,0.01-0.14,0.02
	c-0.03,0.01-0.07,0.03-0.12,0.07l-0.04-0.04c0.03-0.05,0.06-0.09,0.07-0.13c0.01-0.03,0.02-0.07,0.02-0.12v-1.49
	c0-0.05-0.01-0.1-0.02-0.14c-0.01-0.04-0.03-0.08-0.06-0.12l0.04-0.04c0.05,0.03,0.1,0.06,0.13,0.07c0.04,0.01,0.08,0.02,0.13,0.02
	h2.82l-0.12-1.13h-4.08v7.3h4.07l0.13-1.13H192.08z M186.04,46.25c-0.06,0-0.11,0.01-0.15,0.02c-0.03,0.01-0.07,0.03-0.1,0.06
	l-0.04-0.04c0.03-0.04,0.05-0.07,0.06-0.1c0.01-0.03,0.02-0.08,0.02-0.16v-5.98h-1.2v7.31h3.71l0.18-1.13H186.04z M179.96,46.25
	c-0.07,0-0.12,0.01-0.15,0.02c-0.03,0.01-0.07,0.03-0.1,0.06l-0.04-0.04c0.03-0.04,0.05-0.07,0.06-0.1
	c0.01-0.03,0.02-0.08,0.02-0.16v-5.98h-1.2v7.31h3.71l0.18-1.13H179.96z M173.12,46.25c-0.06,0-0.11,0.01-0.15,0.02
	c-0.04,0.01-0.07,0.03-0.11,0.06l-0.04-0.04c0.03-0.04,0.05-0.08,0.06-0.11c0.01-0.04,0.02-0.09,0.02-0.15v-1.61
	c0-0.05-0.01-0.1-0.02-0.14c-0.01-0.04-0.03-0.08-0.06-0.12l0.04-0.04c0.04,0.03,0.07,0.05,0.1,0.06c0.03,0.01,0.08,0.02,0.15,0.02
	h2.47v-1.11h-2.47c-0.06,0-0.11,0.01-0.14,0.02c-0.03,0.01-0.07,0.03-0.12,0.07l-0.04-0.04c0.03-0.05,0.06-0.09,0.07-0.13
	c0.01-0.03,0.02-0.07,0.02-0.12v-1.49c0-0.05-0.01-0.1-0.02-0.14c-0.01-0.04-0.03-0.08-0.06-0.12l0.04-0.04
	c0.05,0.03,0.1,0.06,0.13,0.07c0.04,0.01,0.08,0.02,0.13,0.02h2.82l-0.12-1.13h-4.08v7.3h4.07l0.13-1.13H173.12z M167.47,43.82
	c-0.03-0.07-0.06-0.11-0.08-0.13c-0.02-0.02-0.05-0.03-0.09-0.04v-0.04c0.04-0.01,0.07-0.03,0.09-0.04
	c0.02-0.02,0.05-0.06,0.08-0.13l1.92-3.37h-1.32l-1.1,2.05c-0.09,0.16-0.15,0.3-0.18,0.4c-0.03,0.1-0.06,0.27-0.07,0.49h-0.05
	c-0.02-0.21-0.04-0.37-0.08-0.48c-0.03-0.11-0.09-0.25-0.18-0.41l-1.1-2.05h-1.32l1.91,3.37c0.03,0.05,0.06,0.09,0.09,0.12
	c0.03,0.02,0.06,0.04,0.09,0.05v0.04c-0.04,0.01-0.07,0.03-0.09,0.05c-0.03,0.02-0.05,0.06-0.09,0.12l-1.98,3.55h1.33l1.16-2.22
	c0.1-0.2,0.17-0.35,0.2-0.46c0.03-0.11,0.05-0.25,0.06-0.44h0.05c0.02,0.21,0.04,0.37,0.07,0.47c0.03,0.1,0.09,0.25,0.18,0.42
	l1.16,2.22h1.33L167.47,43.82z M161.78,40.07h-1.2v4.23c0,0.7-0.14,1.22-0.42,1.57c-0.28,0.34-0.71,0.52-1.28,0.52
	c-0.57,0-1-0.17-1.28-0.52c-0.28-0.34-0.42-0.87-0.42-1.57v-4.23h-1.2v4.11c0,0.6,0.06,1.1,0.18,1.48c0.12,0.38,0.31,0.7,0.56,0.96
	c0.27,0.29,0.6,0.51,0.97,0.66c0.37,0.15,0.77,0.23,1.19,0.23c0.42,0,0.82-0.08,1.19-0.23c0.37-0.15,0.7-0.38,0.97-0.66
	c0.25-0.26,0.43-0.58,0.56-0.96c0.12-0.38,0.18-0.87,0.18-1.48V40.07z M151.98,44.48c-0.07-0.1-0.15-0.19-0.25-0.28
	c-0.1-0.09-0.22-0.17-0.35-0.25l0.02-0.04c0.09,0.02,0.17,0.04,0.24,0.05c0.07,0.01,0.14,0.02,0.21,0.02c0.45,0,0.83-0.18,1.14-0.54
	c0.31-0.36,0.47-0.8,0.47-1.32c0-0.67-0.2-1.17-0.61-1.53c-0.4-0.35-1-0.53-1.78-0.53h-1.93v7.3h1.15V44.8
	c0-0.27-0.01-0.48-0.02-0.61c-0.01-0.13-0.04-0.28-0.08-0.45l0.05-0.02c0.06,0.16,0.12,0.29,0.18,0.4c0.06,0.11,0.16,0.27,0.3,0.47
	l1.87,2.79h1.31L151.98,44.48z M152.07,42.93c-0.19,0.17-0.48,0.25-0.88,0.25h-0.71c-0.07,0-0.11,0.01-0.15,0.02
	c-0.03,0.01-0.07,0.03-0.1,0.06l-0.04-0.04c0.04-0.04,0.07-0.09,0.08-0.12c0.02-0.04,0.02-0.08,0.02-0.13V41.3
	c-0.01-0.06-0.03-0.11-0.04-0.15c-0.02-0.04-0.04-0.07-0.07-0.11l0.04-0.04c0.04,0.04,0.08,0.06,0.11,0.07
	c0.03,0.01,0.08,0.02,0.14,0.02h0.71c0.4,0,0.69,0.08,0.88,0.25c0.19,0.17,0.29,0.43,0.29,0.79
	C152.36,42.49,152.26,42.76,152.07,42.93 M146.22,44.07c-0.24-0.3-0.58-0.49-1.01-0.57v-0.06c0.36-0.11,0.63-0.28,0.8-0.52
	c0.17-0.24,0.26-0.55,0.26-0.94c0-0.62-0.2-1.1-0.6-1.42c-0.4-0.33-0.99-0.49-1.76-0.49h-2.04v7.3h2.19c0.79,0,1.41-0.2,1.85-0.61
	c0.44-0.41,0.66-0.93,0.66-1.57C146.59,44.75,146.46,44.37,146.22,44.07 M144.91,42.81c-0.18,0.18-0.44,0.27-0.78,0.27h-0.94
	c-0.06,0-0.11,0.01-0.14,0.02c-0.03,0.01-0.07,0.04-0.11,0.07l-0.04-0.04c0-0.01,0.01-0.01,0.01-0.03c0.05-0.08,0.08-0.16,0.08-0.23
	v-1.57c0-0.05-0.01-0.09-0.02-0.12c-0.01-0.03-0.04-0.08-0.07-0.13l0.04-0.04c0.04,0.04,0.08,0.06,0.11,0.07
	c0.03,0.01,0.08,0.02,0.14,0.02h0.8c0.42,0,0.73,0.08,0.92,0.23c0.19,0.16,0.28,0.4,0.28,0.73
	C145.19,42.38,145.1,42.63,144.91,42.81 M145.13,46.03c-0.23,0.21-0.55,0.31-0.96,0.31h-0.97c-0.06,0-0.11,0.01-0.14,0.02
	c-0.03,0.01-0.07,0.04-0.11,0.07l-0.04-0.05c0.04-0.05,0.06-0.08,0.07-0.11c0.01-0.03,0.01-0.07,0.01-0.14v-1.88
	c0-0.05,0-0.09-0.01-0.12c-0.01-0.03-0.03-0.07-0.07-0.13l0.04-0.05c0.04,0.03,0.08,0.06,0.11,0.07c0.03,0.01,0.08,0.02,0.14,0.02
	h0.93c0.26,0,0.47,0.02,0.63,0.08c0.16,0.05,0.29,0.14,0.41,0.26c0.1,0.1,0.17,0.22,0.23,0.36c0.05,0.14,0.08,0.28,0.08,0.43
	C145.48,45.53,145.36,45.82,145.13,46.03 M139.12,44.19h-2.53v1.08h2.53V44.19z M131.51,46.25c-0.07,0-0.12,0.01-0.15,0.02
	c-0.04,0.01-0.07,0.03-0.11,0.06l-0.04-0.04c0.03-0.04,0.05-0.08,0.06-0.11c0.01-0.04,0.02-0.09,0.02-0.15v-1.61
	c0-0.05-0.01-0.1-0.02-0.14c-0.01-0.04-0.03-0.08-0.06-0.12l0.04-0.04c0.04,0.03,0.07,0.05,0.1,0.06c0.03,0.01,0.08,0.02,0.15,0.02
	h2.46v-1.11h-2.46c-0.06,0-0.11,0.01-0.14,0.02c-0.03,0.01-0.07,0.03-0.12,0.07l-0.04-0.04c0.03-0.05,0.06-0.09,0.07-0.13
	c0.01-0.03,0.02-0.07,0.02-0.12v-1.49c0-0.05-0.01-0.1-0.02-0.14c-0.01-0.04-0.03-0.08-0.06-0.12l0.04-0.04
	c0.05,0.03,0.1,0.06,0.13,0.07c0.04,0.01,0.08,0.02,0.13,0.02h2.82l-0.12-1.13h-4.08v7.3h4.07l0.13-1.13H131.51z M127.14,40.06h-1.2
	v7.31h1.2V40.06z M122.96,40.07h-1.16v4.49c0,0.21,0.02,0.43,0.05,0.65c0.03,0.23,0.09,0.5,0.17,0.82l-0.05,0.01
	c-0.1-0.28-0.19-0.51-0.28-0.71c-0.09-0.19-0.2-0.38-0.32-0.56l-3.23-4.7h-1.08v7.3h1.16v-4.5c0-0.19-0.01-0.38-0.04-0.58
	c-0.03-0.19-0.09-0.49-0.18-0.88l0.05-0.01c0.12,0.33,0.21,0.57,0.29,0.73c0.07,0.15,0.18,0.33,0.32,0.53l3.22,4.71h1.08V40.07z
	 M113.51,40.99c-0.69-0.71-1.57-1.06-2.66-1.06c-1.05,0-1.92,0.36-2.6,1.07c-0.68,0.71-1.02,1.62-1.02,2.71
	c0,1.11,0.34,2.02,1.02,2.73c0.68,0.71,1.56,1.06,2.63,1.06c1.07,0,1.94-0.35,2.63-1.06c0.69-0.71,1.03-1.61,1.03-2.72
	C114.54,42.61,114.2,41.7,113.51,40.99 M112.65,45.63c-0.45,0.48-1.04,0.73-1.77,0.73c-0.73,0-1.33-0.24-1.77-0.73
	c-0.45-0.48-0.67-1.12-0.67-1.92c0-0.79,0.23-1.43,0.68-1.92c0.45-0.49,1.04-0.73,1.78-0.73c0.72,0,1.31,0.25,1.76,0.74
	c0.45,0.49,0.68,1.13,0.68,1.91C113.32,44.51,113.1,45.15,112.65,45.63 M103.14,46.25c-0.07,0-0.12,0.01-0.15,0.02
	c-0.03,0.01-0.07,0.03-0.1,0.06l-0.04-0.04c0.03-0.04,0.05-0.07,0.06-0.1c0.01-0.03,0.02-0.08,0.02-0.16v-5.98h-1.2v7.31h3.71
	l0.18-1.13H103.14z M97.06,46.25c-0.06,0-0.12,0.01-0.15,0.02c-0.03,0.01-0.07,0.03-0.1,0.06l-0.04-0.04
	c0.03-0.04,0.05-0.07,0.06-0.1c0.01-0.03,0.02-0.08,0.02-0.16v-5.98h-1.2v7.31h3.71l0.18-1.13H97.06z M90.82,40.07h-1.04l-2.66,7.3
	h1.21l0.78-2.19h2.4l0.77,2.19h1.2L90.82,40.07z M91.22,44.16c-0.04-0.01-0.07-0.02-0.11-0.03c-0.03-0.01-0.08-0.01-0.12-0.01h-1.39
	c-0.04,0-0.08,0-0.11,0.01c-0.03,0-0.07,0.02-0.12,0.03l-0.04-0.05c0.03-0.02,0.06-0.05,0.07-0.07c0.02-0.02,0.03-0.06,0.05-0.1
	l0.7-2c0.03-0.08,0.06-0.21,0.07-0.36c0.02-0.16,0.03-0.33,0.04-0.53h0.06c0.01,0.2,0.02,0.38,0.04,0.53
	c0.02,0.16,0.04,0.28,0.07,0.36l0.68,2c0.01,0.04,0.03,0.07,0.05,0.1c0.02,0.02,0.04,0.05,0.08,0.07L91.22,44.16z M84.77,40.07
	l-1.38,4.8c-0.06,0.19-0.09,0.36-0.11,0.51c-0.02,0.15-0.04,0.4-0.05,0.74h-0.06c-0.03-0.35-0.07-0.61-0.09-0.76
	c-0.03-0.15-0.07-0.32-0.13-0.49l-1.26-3.7l-1.25,3.71c-0.06,0.17-0.11,0.33-0.13,0.48c-0.03,0.15-0.06,0.4-0.09,0.76h-0.06
	c-0.01-0.34-0.02-0.59-0.04-0.74c-0.02-0.15-0.06-0.32-0.12-0.51l-1.38-4.8h-1.28l2.21,7.3h1.09l0.91-2.92
	c0.03-0.09,0.05-0.22,0.07-0.39c0.02-0.16,0.03-0.37,0.04-0.6l0.05-0.01c0.01,0.24,0.02,0.44,0.04,0.6c0.02,0.17,0.04,0.3,0.08,0.39
	l0.92,2.92h1.08l2.22-7.3H84.77z"/>
<path class="st3" d="M201.56,21.43h-2.11v8.17c0,0.38,0.03,0.78,0.09,1.19c0.06,0.41,0.16,0.9,0.31,1.48l-0.09,0.02
	c-0.17-0.51-0.34-0.93-0.51-1.28c-0.17-0.35-0.36-0.69-0.59-1.02l-5.87-8.55h-1.96v13.29h2.12v-8.19c0-0.35-0.03-0.7-0.08-1.05
	c-0.05-0.35-0.16-0.88-0.32-1.6l0.09-0.02c0.21,0.6,0.38,1.04,0.52,1.32c0.13,0.28,0.33,0.6,0.58,0.96l5.87,8.57h1.96V21.43z
	 M184.49,23.1c-1.25-1.28-2.86-1.92-4.84-1.92c-1.92,0-3.5,0.65-4.74,1.95c-1.24,1.3-1.86,2.95-1.86,4.94
	c0,2.02,0.62,3.67,1.87,4.96c1.24,1.29,2.84,1.94,4.79,1.94c1.94,0,3.54-0.65,4.79-1.94c1.25-1.29,1.87-2.94,1.87-4.94
	C186.36,26.05,185.73,24.39,184.49,23.1 M182.92,31.56c-0.81,0.88-1.89,1.32-3.23,1.32c-1.34,0-2.41-0.44-3.23-1.32
	c-0.81-0.88-1.22-2.04-1.22-3.5c0-1.44,0.41-2.61,1.23-3.49c0.82-0.88,1.9-1.33,3.24-1.33c1.31,0,2.38,0.45,3.2,1.34
	c0.82,0.9,1.23,2.05,1.23,3.47C184.15,29.51,183.74,30.68,182.92,31.56 M168.43,21.41h-2.18v13.31h2.18V21.41z M161.98,21.43h-7.87
	l-0.28,2h2.75c0.12,0,0.21-0.01,0.27-0.03c0.06-0.02,0.12-0.06,0.19-0.12l0.08,0.08c-0.07,0.1-0.11,0.18-0.13,0.24
	c-0.02,0.06-0.03,0.13-0.03,0.22v10.92h2.16V23.81c0-0.1-0.01-0.18-0.03-0.25c-0.02-0.07-0.06-0.14-0.12-0.22l0.08-0.08
	c0.08,0.06,0.15,0.1,0.21,0.13c0.06,0.02,0.14,0.03,0.25,0.03h2.76L161.98,21.43z M147.38,21.43h-1.9l-4.83,13.29h2.19l1.42-3.99
	h4.38l1.41,3.99h2.18L147.38,21.43z M148.11,28.87c-0.07-0.02-0.13-0.04-0.2-0.06c-0.06-0.01-0.14-0.02-0.22-0.02h-2.52
	c-0.08,0-0.15,0-0.2,0.01c-0.05,0.01-0.12,0.03-0.21,0.06l-0.07-0.09c0.06-0.04,0.1-0.09,0.13-0.13c0.03-0.04,0.06-0.1,0.08-0.18
	l1.26-3.64c0.06-0.16,0.1-0.38,0.14-0.66c0.03-0.28,0.06-0.61,0.07-0.97h0.1c0.01,0.36,0.04,0.69,0.07,0.97
	c0.03,0.28,0.08,0.5,0.14,0.66l1.25,3.64c0.02,0.07,0.05,0.13,0.09,0.18c0.03,0.04,0.08,0.09,0.14,0.13L148.11,28.87z M133.84,29.45
	c-0.12-0.18-0.28-0.35-0.46-0.51c-0.18-0.16-0.39-0.31-0.64-0.45l0.04-0.07c0.16,0.04,0.31,0.08,0.44,0.1
	c0.13,0.02,0.26,0.03,0.37,0.03c0.82,0,1.52-0.33,2.08-0.98c0.56-0.65,0.85-1.45,0.85-2.4c0-1.21-0.37-2.14-1.11-2.78
	c-0.74-0.64-1.81-0.96-3.23-0.96h-3.51v13.29h2.1v-4.69c0-0.5-0.01-0.87-0.04-1.1c-0.03-0.24-0.07-0.51-0.14-0.83l0.09-0.03
	c0.11,0.28,0.21,0.52,0.32,0.73c0.11,0.2,0.29,0.49,0.55,0.85l3.41,5.07h2.38L133.84,29.45z M134.02,26.63
	c-0.34,0.31-0.88,0.46-1.61,0.46h-1.29c-0.12,0-0.21,0.01-0.27,0.03c-0.06,0.02-0.12,0.06-0.19,0.12l-0.08-0.08
	c0.08-0.08,0.13-0.16,0.15-0.23c0.03-0.07,0.04-0.15,0.04-0.23v-3.04c-0.03-0.11-0.05-0.2-0.08-0.27c-0.03-0.07-0.07-0.13-0.12-0.2
	l0.08-0.07c0.08,0.06,0.15,0.1,0.21,0.12c0.06,0.02,0.14,0.03,0.25,0.03h1.29c0.72,0,1.26,0.15,1.61,0.46
	c0.35,0.31,0.52,0.79,0.52,1.44C134.54,25.83,134.37,26.32,134.02,26.63 M119.46,17.34l-0.92,2.58h1.61l1.72-2.58H119.46z
	 M118.96,32.67c-0.12,0-0.21,0.01-0.27,0.03c-0.06,0.02-0.13,0.06-0.2,0.12l-0.07-0.07c0.05-0.07,0.09-0.14,0.11-0.2
	c0.03-0.07,0.04-0.16,0.04-0.27v-2.93c0-0.09-0.01-0.18-0.04-0.25c-0.03-0.07-0.06-0.14-0.11-0.21l0.08-0.07
	c0.07,0.06,0.13,0.09,0.19,0.11c0.06,0.02,0.15,0.03,0.27,0.04h4.49v-2.01h-4.49c-0.11,0-0.2,0.01-0.26,0.03
	c-0.06,0.02-0.13,0.06-0.21,0.12l-0.08-0.07c0.06-0.09,0.11-0.17,0.13-0.23c0.02-0.06,0.03-0.14,0.03-0.22v-2.71
	c0-0.09-0.01-0.18-0.04-0.25c-0.03-0.07-0.06-0.15-0.11-0.22l0.07-0.07c0.09,0.06,0.17,0.1,0.24,0.13c0.07,0.02,0.14,0.03,0.23,0.03
	h5.13l-0.22-2.05h-7.43v13.29h7.41l0.24-2.05H118.96z M110.04,23.3c-1.32-1.25-3-1.87-5.04-1.87h-3.57v13.29h3.49
	c2.11,0,3.82-0.63,5.13-1.88c1.32-1.26,1.97-2.84,1.97-4.76C112.02,26.15,111.36,24.55,110.04,23.3 M108.51,31.42
	c-0.91,0.87-2.07,1.31-3.48,1.31h-1.05c-0.12,0-0.21,0.01-0.27,0.03c-0.06,0.02-0.12,0.06-0.19,0.12l-0.08-0.07
	c0.07-0.07,0.11-0.13,0.13-0.19c0.02-0.06,0.03-0.15,0.03-0.27v-8.54c0-0.09-0.01-0.17-0.03-0.23c-0.02-0.06-0.06-0.14-0.13-0.23
	l0.08-0.08c0.08,0.06,0.15,0.1,0.21,0.13c0.06,0.02,0.14,0.03,0.25,0.03h1.15c1.36,0,2.49,0.44,3.39,1.32
	c0.9,0.88,1.35,1.99,1.35,3.34C109.88,29.44,109.42,30.55,108.51,31.42 M92.19,17.34l-0.92,2.58h1.61l1.72-2.58H92.19z M91.69,32.67
	c-0.12,0-0.21,0.01-0.27,0.03c-0.06,0.02-0.13,0.06-0.2,0.12l-0.07-0.07c0.05-0.07,0.09-0.14,0.11-0.2
	c0.02-0.07,0.04-0.16,0.04-0.27v-2.93c0-0.09-0.01-0.18-0.04-0.25c-0.02-0.07-0.06-0.14-0.11-0.21l0.07-0.07
	c0.07,0.06,0.13,0.09,0.19,0.11c0.06,0.02,0.15,0.03,0.27,0.04h4.49v-2.01h-4.49c-0.11,0-0.2,0.01-0.26,0.03
	c-0.06,0.02-0.13,0.06-0.21,0.12l-0.08-0.07c0.06-0.09,0.1-0.17,0.13-0.23c0.02-0.06,0.03-0.14,0.03-0.22v-2.71
	c0-0.09-0.01-0.18-0.04-0.25c-0.02-0.07-0.06-0.15-0.11-0.22l0.07-0.07c0.09,0.06,0.17,0.1,0.24,0.13c0.07,0.02,0.14,0.03,0.23,0.03
	h5.13l-0.23-2.05h-7.43v13.29h7.41l0.24-2.05H91.69z M84.82,21.43h-7.49v13.29h2.19v-5.37c0-0.11-0.01-0.2-0.03-0.26
	c-0.02-0.06-0.06-0.13-0.12-0.21l0.07-0.08c0.08,0.06,0.15,0.1,0.21,0.13c0.06,0.02,0.14,0.03,0.25,0.03h4.45v-2.01h-4.49
	c-0.14,0-0.23,0.01-0.28,0.03c-0.05,0.02-0.11,0.06-0.19,0.11l-0.08-0.07c0.08-0.09,0.13-0.17,0.16-0.23
	c0.02-0.06,0.04-0.14,0.04-0.22v-2.69c-0.03-0.13-0.05-0.23-0.08-0.28c-0.02-0.06-0.06-0.12-0.12-0.18l0.08-0.08
	c0.08,0.06,0.15,0.1,0.21,0.12c0.06,0.02,0.14,0.03,0.25,0.03h5.29L84.82,21.43z"/>
</svg>
